<?xml version="1.0" encoding="UTF-8" standalone="no"?>
<!-- Created with Inkscape (http://www.inkscape.org/) -->

<svg
   xmlns:dc="http://purl.org/dc/elements/1.1/"
   xmlns:cc="http://creativecommons.org/ns#"
   xmlns:rdf="http://www.w3.org/1999/02/22-rdf-syntax-ns#"
   xmlns:svg="http://www.w3.org/2000/svg"
   xmlns="http://www.w3.org/2000/svg"
   xmlns:sodipodi="http://sodipodi.sourceforge.net/DTD/sodipodi-0.dtd"
   xmlns:inkscape="http://www.inkscape.org/namespaces/inkscape"
   width="559.79633"
   height="139.17538"
   id="svg8316"
   version="1.1"
   inkscape:version="0.48.4 r9939"
   sodipodi:docname="New document 8">
  <defs
     id="defs8318" />
  <sodipodi:namedview
     id="base"
     pagecolor="#ffffff"
     bordercolor="#666666"
     borderopacity="1.0"
     inkscape:pageopacity="0.0"
     inkscape:pageshadow="2"
     inkscape:zoom="0.35"
     inkscape:cx="677.65348"
     inkscape:cy="161.07045"
     inkscape:document-units="px"
     inkscape:current-layer="layer1"
     showgrid="false"
     fit-margin-top="5"
     fit-margin-left="5"
     fit-margin-right="5"
     fit-margin-bottom="5"
     inkscape:window-width="467"
     inkscape:window-height="427"
     inkscape:window-x="808"
     inkscape:window-y="0"
     inkscape:window-maximized="0" />
  <metadata
     id="metadata8321">
    <rdf:RDF>
      <cc:Work
         rdf:about="">
        <dc:format>image/svg+xml</dc:format>
        <dc:type
           rdf:resource="http://purl.org/dc/dcmitype/StillImage" />
        <dc:title></dc:title>
      </cc:Work>
    </rdf:RDF>
  </metadata>
  <g
     inkscape:label="Layer 1"
     inkscape:groupmode="layer"
     id="layer1"
     transform="translate(302.65348,-554.25724)">
    <g
       transform="matrix(2.7096337,0,0,-2.7096337,-590.61827,1746.6882)"
       id="g8239">
      <path
         d="m 183.876,390.553 63.134,0 0,47.0863 -63.134,0 0,-47.0863 z"
         style="fill:#222222;fill-opacity:1;fill-rule:nonzero;stroke:none"
         id="path7658"
         inkscape:connector-curvature="0" />
      <path
         d="m 183.281,391.13 63.134,0 0,47.0859 -63.134,0 0,-47.0859 z"
         style="fill:#3c3c3c;fill-opacity:1;fill-rule:nonzero;stroke:none"
         id="path7660"
         inkscape:connector-curvature="0" />
      <g
         id="g7662"
         transform="scale(0.099822,-0.100178)">
        <path
           d="m 1836.08,-4374.37 632.46,0 0,470.02 -632.46,0 0,-470.02 z"
           style="fill:none;stroke:#000000;stroke-width:0.22480001;stroke-linecap:round;stroke-linejoin:round;stroke-miterlimit:4;stroke-opacity:1;stroke-dasharray:none"
           id="path7664"
           inkscape:connector-curvature="0" />
      </g>
      <path
         d="m 183.281,438.216 58.645,0 C 183.301,417.6 207.985,390.767 183.281,391.13"
         style="fill:#363636;fill-opacity:1;fill-rule:nonzero;stroke:none"
         id="path7666"
         inkscape:connector-curvature="0" />
      <path
         d="m 183.384,438.1 18.083,0 -17.116,-0.975 -0.967,-18.948"
         style="fill:#5e5e5e;fill-opacity:1;fill-rule:nonzero;stroke:none"
         id="path7668"
         inkscape:connector-curvature="0" />
      <g
         id="g7670"
         transform="scale(0.099822,-0.100178)">
        <path
           d="m 1984.02,-4335.88 c -102.54,4.75 -63.02,169.71 -121.78,194.24 58.01,36.68 26.88,197.11 120.79,197.63"
           style="fill:none;stroke:#66ccff;stroke-width:4.4959898;stroke-linecap:round;stroke-linejoin:round;stroke-miterlimit:4;stroke-opacity:1;stroke-dasharray:none"
           id="path7672"
           inkscape:connector-curvature="0" />
      </g>
      <path
         d="m 230.771,414.791 c 0,10.822 -8.681,19.357 -19.405,19.357 -10.491,0 -19.171,-8.535 -19.171,-19.357 0,-10.82 8.68,-19.59 19.171,-19.59 10.724,0 19.405,8.77 19.405,19.59"
         style="fill:#121212;fill-opacity:1;fill-rule:nonzero;stroke:none"
         id="path7674"
         inkscape:connector-curvature="0" />
      <g
         id="g7676"
         transform="scale(0.099822,-0.100178)">
        <path
           d="m 2311.82,-4140.53 c 0,-108.02 -86.96,-193.23 -194.39,-193.23 -105.1,0 -192.07,85.21 -192.07,193.23 0,107.99 86.97,195.56 192.07,195.56 107.43,0 194.39,-87.57 194.39,-195.56 z"
           style="fill:none;stroke:#000000;stroke-width:0.68626302;stroke-linecap:round;stroke-linejoin:round;stroke-miterlimit:4;stroke-opacity:1;stroke-dasharray:none"
           id="path7678"
           inkscape:connector-curvature="0" />
      </g>
      <path
         d="m 217.407,414.672 c 0,-3.274 -2.653,-5.932 -5.924,-5.932 -3.273,0 -5.927,2.658 -5.927,5.932 0,3.278 2.654,5.935 5.927,5.935 3.271,0 5.924,-2.657 5.924,-5.935"
         style="fill:#b3b3b3;fill-opacity:1;fill-rule:nonzero;stroke:none"
         id="path7680"
         inkscape:connector-curvature="0" />
      <g
         id="g7682"
         transform="scale(0.099822,-0.100178)">
        <path
           d="m 2177.95,-4139.35 c 0,32.69 -26.58,59.21 -59.35,59.21 -32.79,0 -59.36,-26.52 -59.36,-59.21 0,-32.73 26.57,-59.25 59.36,-59.25 32.77,0 59.35,26.52 59.35,59.25 z"
           style="fill:none;stroke:#dddddd;stroke-width:2.15017009;stroke-linecap:round;stroke-linejoin:round;stroke-miterlimit:4.37568998;stroke-opacity:1;stroke-dasharray:none"
           id="path7684"
           inkscape:connector-curvature="0" />
      </g>
      <path
         d="m 205.824,415.699 c -0.372,-1.965 0.311,-3.981 1.8,-5.308 1.487,-1.324 3.562,-1.768 5.462,-1.161 -1.874,-0.38 -3.812,0.144 -5.24,1.415 -1.427,1.273 -2.175,3.145 -2.022,5.054"
         style="fill:#cecece;fill-opacity:1;fill-rule:nonzero;stroke:none"
         id="path7686"
         inkscape:connector-curvature="0" />
      <path
         d="m 214.83,411.778 c -0.126,0.32 -0.09,0.683 0.101,0.97 0.187,0.288 0.504,0.466 0.847,0.477 0.316,0.379 0.501,0.853 0.522,1.347 0.084,-0.535 -0.042,-1.082 -0.355,-1.524 -0.238,-0.527 -0.628,-0.968 -1.115,-1.27"
         style="fill:#ededed;fill-opacity:1;fill-rule:nonzero;stroke:none"
         id="path7688"
         inkscape:connector-curvature="0" />
      <path
         d="m 210.111,418.645 c 0.952,-0.597 1.498,-1.669 1.424,-2.792 -0.073,-1.124 -0.756,-2.117 -1.776,-2.584 -0.048,-0.9 0.348,-1.765 1.064,-2.312 0.712,-0.551 1.648,-0.713 2.504,-0.434 -2.17,-0.761 -4.574,0.142 -5.709,2.148 -0.751,1.078 -0.9,2.467 -0.392,3.675 0.504,1.213 1.594,2.081 2.885,2.299"
         style="fill:#d2d2d2;fill-opacity:1;fill-rule:nonzero;stroke:none"
         id="path7690"
         inkscape:connector-curvature="0" />
      <path
         d="m 192.328,414.682 c 0,-4.803 1.71,-9.154 4.551,-12.511 -6.661,13.496 6.784,35.254 26.717,27.428 -3.3,2.728 -7.414,4.44 -11.941,4.44 -10.721,0 -19.327,-8.539 -19.327,-19.357"
         style="fill:#000000;fill-opacity:1;fill-rule:nonzero;stroke:none"
         id="path7692"
         inkscape:connector-curvature="0" />
      <g
         id="g7694"
         transform="scale(0.099822,-0.100178)">
        <path
           d="m 2320.19,-4140.59 c 0,-112.69 -90.75,-201.6 -202.8,-201.6 -109.63,0 -200.43,88.91 -200.43,201.6 0,112.71 90.8,204.04 200.43,204.04 112.05,0 202.8,-91.33 202.8,-204.04 z"
           style="fill:none;stroke:#000000;stroke-width:0.68626302;stroke-linecap:round;stroke-linejoin:round;stroke-miterlimit:4;stroke-opacity:1;stroke-dasharray:none"
           id="path7696"
           inkscape:connector-curvature="0" />
      </g>
      <g
         id="g7698"
         transform="scale(0.099822,-0.100178)">
        <path
           d="m 2168.96,-4198.6 c 25.26,0 20.19,33.42 38.9,57.95 -20.8,21.21 -7.94,61.36 -36.52,61.36"
           style="fill:none;stroke:#66ccff;stroke-width:6.74398994;stroke-linecap:round;stroke-linejoin:round;stroke-miterlimit:4;stroke-opacity:1;stroke-dasharray:none"
           id="path7700"
           inkscape:connector-curvature="0" />
      </g>
      <g
         id="g7702"
         transform="scale(0.099822,-0.100178)">
        <path
           d="m 2208.63,-4140.65 452.04,0"
           style="fill:none;stroke:#66ccff;stroke-width:4.4959898;stroke-linecap:butt;stroke-linejoin:miter;stroke-miterlimit:4;stroke-opacity:1;stroke-dasharray:none"
           id="path7704"
           inkscape:connector-curvature="0" />
      </g>
      <g
         id="g7706"
         transform="scale(0.099822,-0.100178)">
        <path
           d="m 1537,-4141.64 322.72,0"
           style="fill:none;stroke:#66ccff;stroke-width:4.4959898;stroke-linecap:round;stroke-linejoin:round;stroke-miterlimit:4;stroke-opacity:1;stroke-dasharray:none"
           id="path7708"
           inkscape:connector-curvature="0" />
      </g>
      <path
         d="m 115.632,416.05 c 0,0.511 -0.1,0.991 -0.294,1.438 -0.199,0.442 -0.463,0.83 -0.794,1.16 -0.335,0.326 -0.727,0.582 -1.176,0.77 -0.451,0.186 -0.926,0.28 -1.43,0.28 -0.514,0 -0.994,-0.094 -1.44,-0.28 -0.449,-0.188 -0.839,-0.444 -1.173,-0.77 -0.334,-0.33 -0.598,-0.718 -0.788,-1.16 -0.194,-0.447 -0.291,-0.927 -0.288,-1.438 -0.003,-0.525 0.097,-1.005 0.294,-1.445 0.193,-0.441 0.457,-0.827 0.791,-1.157 0.334,-0.329 0.724,-0.588 1.173,-0.77 0.445,-0.185 0.926,-0.274 1.439,-0.276 0.505,0.002 0.979,0.091 1.428,0.276 0.446,0.182 0.835,0.441 1.17,0.77 0.331,0.33 0.595,0.716 0.794,1.163 0.194,0.441 0.294,0.921 0.294,1.439 z m -0.716,0 c -0.003,-0.414 -0.079,-0.803 -0.234,-1.166 -0.156,-0.368 -0.37,-0.686 -0.637,-0.952 -0.27,-0.274 -0.583,-0.49 -0.947,-0.646 -0.364,-0.161 -0.75,-0.241 -1.16,-0.238 -0.42,-0.003 -0.809,0.077 -1.168,0.233 -0.36,0.156 -0.674,0.371 -0.941,0.644 -0.266,0.273 -0.477,0.591 -0.63,0.954 -0.158,0.358 -0.235,0.747 -0.231,1.171 -0.004,0.407 0.073,0.796 0.231,1.165 0.153,0.361 0.364,0.683 0.63,0.956 0.267,0.274 0.581,0.488 0.944,0.645 0.361,0.152 0.754,0.229 1.173,0.232 0.411,-0.003 0.795,-0.082 1.156,-0.239 0.36,-0.158 0.673,-0.374 0.943,-0.647 0.267,-0.273 0.481,-0.591 0.637,-0.953 0.155,-0.363 0.231,-0.752 0.234,-1.159 z m 4.63,-2.807 c 0.105,-0.145 0.234,-0.269 0.383,-0.371 0.148,-0.107 0.306,-0.194 0.475,-0.265 0.168,-0.071 0.34,-0.12 0.52,-0.156 0.179,-0.033 0.354,-0.047 0.53,-0.049 0.417,0.002 0.777,0.079 1.082,0.237 0.302,0.156 0.546,0.36 0.727,0.606 0.182,0.248 0.299,0.521 0.357,0.821 0.053,0.3 0.047,0.595 -0.016,0.883 -0.071,0.288 -0.201,0.551 -0.394,0.785 -0.193,0.236 -0.457,0.415 -0.785,0.539 0.299,0.127 0.539,0.301 0.721,0.522 0.175,0.217 0.293,0.452 0.349,0.708 0.052,0.249 0.046,0.506 -0.015,0.771 -0.067,0.258 -0.185,0.494 -0.355,0.704 -0.172,0.207 -0.395,0.379 -0.671,0.511 -0.276,0.129 -0.599,0.194 -0.967,0.198 -0.332,-0.004 -0.654,-0.069 -0.966,-0.198 -0.314,-0.132 -0.586,-0.321 -0.814,-0.562 l 0.243,-0.547 c 0.194,0.2 0.418,0.365 0.68,0.492 0.258,0.124 0.534,0.185 0.824,0.187 0.267,-0.002 0.507,-0.062 0.722,-0.18 0.211,-0.12 0.378,-0.27 0.501,-0.449 0.12,-0.185 0.185,-0.382 0.196,-0.595 0.006,-0.211 -0.05,-0.412 -0.167,-0.596 -0.122,-0.186 -0.323,-0.344 -0.601,-0.48 -0.281,-0.136 -0.651,-0.215 -1.105,-0.233 l 0,-0.597 c 0.26,0 0.513,-0.017 0.753,-0.054 0.238,-0.034 0.449,-0.105 0.63,-0.211 0.183,-0.109 0.327,-0.259 0.435,-0.45 0.105,-0.194 0.158,-0.447 0.161,-0.757 -0.003,-0.237 -0.041,-0.444 -0.12,-0.617 -0.083,-0.177 -0.194,-0.324 -0.336,-0.445 -0.14,-0.124 -0.307,-0.213 -0.497,-0.274 -0.194,-0.06 -0.403,-0.093 -0.622,-0.089 -0.299,-0.004 -0.58,0.063 -0.845,0.195 -0.269,0.13 -0.492,0.31 -0.671,0.543 l -0.342,-0.527 z m 6.215,-0.314 c -0.004,0.119 -0.042,0.21 -0.117,0.278 -0.077,0.062 -0.167,0.095 -0.268,0.097 -0.096,-0.002 -0.181,-0.033 -0.257,-0.09 -0.079,-0.062 -0.117,-0.157 -0.115,-0.285 -0.002,-0.124 0.036,-0.219 0.115,-0.281 0.076,-0.062 0.161,-0.091 0.257,-0.094 0.101,0.003 0.191,0.032 0.268,0.091 0.075,0.059 0.113,0.153 0.117,0.284 z m 5.691,6.628 -4.495,0 -0.07,-0.63 3.636,0 -2.657,-6.385 c 0.112,0.018 0.226,0.018 0.343,0 0.112,-0.011 0.223,-0.032 0.335,-0.059 l 2.908,7.074 z m 10.566,-6.964 0,3.021 c -0.003,0.247 -0.033,0.488 -0.09,0.724 -0.063,0.232 -0.157,0.441 -0.282,0.624 -0.13,0.182 -0.294,0.326 -0.49,0.434 -0.203,0.107 -0.443,0.159 -0.721,0.163 -0.352,-0.004 -0.656,-0.082 -0.921,-0.239 -0.264,-0.161 -0.485,-0.388 -0.666,-0.682 -0.155,0.309 -0.353,0.539 -0.6,0.692 -0.246,0.15 -0.507,0.229 -0.78,0.238 -0.273,0.005 -0.542,-0.055 -0.807,-0.191 -0.269,-0.136 -0.496,-0.336 -0.679,-0.598 l 0,0.78 c -0.212,-0.064 -0.417,-0.115 -0.616,-0.154 l 0,-4.922 0.636,0.11 0,3.203 c -0.002,0.033 0.009,0.074 0.03,0.13 0.017,0.053 0.031,0.097 0.049,0.132 0.091,0.227 0.214,0.415 0.366,0.563 0.149,0.144 0.311,0.246 0.482,0.304 0.169,0.058 0.339,0.071 0.516,0.045 0.172,-0.025 0.331,-0.093 0.469,-0.202 0.138,-0.109 0.248,-0.263 0.337,-0.457 0.085,-0.197 0.128,-0.432 0.132,-0.708 l 0,-3.12 0.626,0.11 0,3.203 c -0.002,0.033 0.01,0.074 0.03,0.126 0.021,0.051 0.039,0.093 0.053,0.128 0.1,0.225 0.223,0.415 0.376,0.563 0.15,0.142 0.313,0.246 0.486,0.308 0.17,0.059 0.341,0.075 0.517,0.049 0.169,-0.025 0.324,-0.096 0.463,-0.205 0.137,-0.115 0.248,-0.265 0.334,-0.458 0.081,-0.193 0.122,-0.428 0.126,-0.704 l 0,-3.12 0.624,0.11 z m 8.048,0 0,3.021 c -0.002,0.247 -0.032,0.488 -0.091,0.724 -0.061,0.232 -0.155,0.441 -0.281,0.624 -0.128,0.182 -0.294,0.326 -0.491,0.434 -0.201,0.107 -0.441,0.159 -0.72,0.163 -0.351,-0.004 -0.657,-0.082 -0.92,-0.239 -0.265,-0.161 -0.487,-0.388 -0.666,-0.682 -0.156,0.309 -0.355,0.539 -0.601,0.692 -0.246,0.15 -0.507,0.229 -0.78,0.238 -0.273,0.005 -0.543,-0.055 -0.807,-0.191 -0.269,-0.136 -0.494,-0.336 -0.679,-0.598 l 0,0.78 c -0.211,-0.064 -0.417,-0.115 -0.617,-0.154 l 0,-4.922 0.636,0.11 0,3.203 c -0.002,0.033 0.01,0.074 0.03,0.13 0.018,0.053 0.033,0.097 0.051,0.132 0.091,0.227 0.213,0.415 0.366,0.563 0.15,0.144 0.31,0.246 0.48,0.304 0.17,0.058 0.34,0.071 0.517,0.045 0.173,-0.025 0.331,-0.093 0.468,-0.202 0.139,-0.109 0.25,-0.263 0.337,-0.457 0.085,-0.197 0.13,-0.432 0.132,-0.708 l 0,-3.12 0.627,0.11 0,3.203 c -0.002,0.033 0.01,0.074 0.031,0.126 0.019,0.051 0.038,0.093 0.051,0.128 0.101,0.225 0.224,0.415 0.376,0.563 0.15,0.142 0.314,0.246 0.487,0.308 0.17,0.059 0.34,0.075 0.516,0.049 0.17,-0.025 0.325,-0.096 0.463,-0.205 0.138,-0.115 0.249,-0.265 0.335,-0.458 0.082,-0.193 0.122,-0.428 0.126,-0.704 l 0,-3.12"
         style="fill:#000000;fill-opacity:1;fill-rule:nonzero;stroke:none"
         id="path7710"
         inkscape:connector-curvature="0" />
      <g
         id="g7712"
         transform="scale(0.099822,-0.100178)">
        <path
           d="m 1158.81,-4198.15 -73.06,91.31"
           style="fill:none;stroke:#000000;stroke-width:6.74398994;stroke-linecap:butt;stroke-linejoin:miter;stroke-miterlimit:4;stroke-opacity:1;stroke-dasharray:none"
           id="path7714"
           inkscape:connector-curvature="0" />
      </g>
      <path
         d="m 276.593,414.923 c 0,0.511 -0.1,0.991 -0.293,1.439 -0.199,0.44 -0.463,0.829 -0.795,1.159 -0.334,0.326 -0.726,0.583 -1.175,0.77 -0.451,0.186 -0.927,0.28 -1.431,0.28 -0.513,0 -0.994,-0.094 -1.44,-0.28 -0.448,-0.187 -0.839,-0.444 -1.172,-0.77 -0.335,-0.33 -0.598,-0.719 -0.789,-1.159 -0.194,-0.448 -0.291,-0.928 -0.287,-1.439 -0.004,-0.525 0.096,-1.005 0.293,-1.445 0.192,-0.442 0.458,-0.827 0.791,-1.157 0.335,-0.328 0.725,-0.588 1.173,-0.77 0.446,-0.185 0.926,-0.275 1.439,-0.276 0.505,0.001 0.98,0.091 1.429,0.276 0.445,0.182 0.835,0.442 1.169,0.77 0.332,0.33 0.596,0.715 0.795,1.163 0.193,0.441 0.293,0.921 0.293,1.439 z m -0.715,0 c -0.003,-0.416 -0.08,-0.803 -0.235,-1.166 -0.155,-0.368 -0.369,-0.685 -0.636,-0.952 -0.271,-0.274 -0.584,-0.49 -0.947,-0.646 -0.364,-0.161 -0.75,-0.241 -1.161,-0.238 -0.42,-0.003 -0.81,0.077 -1.167,0.233 -0.361,0.157 -0.675,0.371 -0.941,0.644 -0.267,0.274 -0.478,0.591 -0.63,0.954 -0.159,0.359 -0.236,0.747 -0.232,1.171 -0.004,0.408 0.073,0.797 0.232,1.165 0.152,0.361 0.363,0.682 0.63,0.957 0.266,0.273 0.58,0.488 0.944,0.643 0.36,0.153 0.753,0.23 1.172,0.233 0.411,-0.003 0.795,-0.083 1.156,-0.239 0.36,-0.159 0.673,-0.373 0.944,-0.647 0.267,-0.272 0.481,-0.59 0.636,-0.953 0.155,-0.362 0.232,-0.751 0.235,-1.159 z m 7.959,-3.516 0,0.567 -0.867,0 0,6.667 -1.677,-0.841 0.112,-0.626 0.896,0.494 0,-5.705 -0.938,0 0,-0.556 2.474,0 z m 2.883,0.395 c -0.004,0.119 -0.042,0.211 -0.118,0.278 -0.077,0.063 -0.167,0.095 -0.266,0.097 -0.098,-0.002 -0.183,-0.032 -0.258,-0.091 -0.08,-0.061 -0.118,-0.156 -0.115,-0.284 -0.003,-0.125 0.035,-0.219 0.115,-0.28 0.075,-0.062 0.16,-0.091 0.258,-0.095 0.099,0.004 0.189,0.033 0.266,0.091 0.076,0.059 0.114,0.153 0.118,0.284 z m 1.339,0.314 c 0.107,-0.145 0.235,-0.269 0.385,-0.371 0.145,-0.107 0.304,-0.194 0.475,-0.265 0.166,-0.071 0.34,-0.12 0.519,-0.156 0.177,-0.033 0.353,-0.048 0.53,-0.049 0.416,0.001 0.777,0.079 1.082,0.238 0.302,0.155 0.545,0.359 0.727,0.605 0.182,0.248 0.3,0.521 0.358,0.821 0.052,0.3 0.046,0.595 -0.019,0.883 -0.07,0.289 -0.198,0.551 -0.391,0.785 -0.195,0.237 -0.457,0.415 -0.787,0.539 0.3,0.127 0.54,0.3 0.722,0.521 0.175,0.218 0.293,0.453 0.349,0.709 0.052,0.249 0.046,0.506 -0.015,0.77 -0.067,0.259 -0.185,0.496 -0.355,0.705 -0.173,0.208 -0.396,0.379 -0.671,0.511 -0.277,0.129 -0.598,0.194 -0.968,0.197 -0.331,-0.003 -0.654,-0.068 -0.964,-0.197 -0.314,-0.132 -0.586,-0.321 -0.815,-0.562 l 0.242,-0.547 c 0.194,0.201 0.42,0.364 0.682,0.491 0.257,0.124 0.533,0.186 0.823,0.188 0.268,-0.002 0.507,-0.062 0.721,-0.18 0.211,-0.12 0.378,-0.27 0.502,-0.45 0.12,-0.184 0.184,-0.381 0.197,-0.593 0.006,-0.213 -0.051,-0.412 -0.168,-0.598 -0.124,-0.185 -0.323,-0.345 -0.602,-0.479 -0.28,-0.136 -0.65,-0.215 -1.105,-0.233 l 0,-0.597 c 0.262,0 0.514,-0.017 0.754,-0.053 0.237,-0.035 0.449,-0.106 0.63,-0.211 0.182,-0.109 0.326,-0.259 0.434,-0.45 0.106,-0.195 0.158,-0.448 0.161,-0.758 -0.003,-0.237 -0.04,-0.444 -0.12,-0.616 -0.082,-0.178 -0.193,-0.325 -0.334,-0.446 -0.141,-0.123 -0.308,-0.213 -0.499,-0.273 -0.193,-0.061 -0.401,-0.094 -0.621,-0.09 -0.299,-0.004 -0.581,0.063 -0.844,0.195 -0.27,0.13 -0.492,0.31 -0.672,0.543 l -0.343,-0.527 z m 14.921,-0.65 0,3.021 c -0.004,0.247 -0.033,0.488 -0.092,0.724 -0.061,0.233 -0.154,0.441 -0.281,0.624 -0.129,0.181 -0.293,0.326 -0.489,0.434 -0.203,0.107 -0.443,0.16 -0.721,0.163 -0.353,-0.003 -0.658,-0.082 -0.922,-0.238 -0.262,-0.162 -0.486,-0.389 -0.666,-0.683 -0.155,0.309 -0.354,0.539 -0.6,0.692 -0.246,0.15 -0.507,0.229 -0.78,0.238 -0.272,0.006 -0.542,-0.055 -0.806,-0.191 -0.269,-0.136 -0.496,-0.336 -0.68,-0.598 l 0,0.78 c -0.211,-0.064 -0.417,-0.115 -0.616,-0.153 l 0,-4.923 0.636,0.11 0,3.204 c -0.002,0.032 0.009,0.073 0.03,0.129 0.018,0.053 0.032,0.096 0.05,0.132 0.09,0.227 0.214,0.415 0.366,0.563 0.149,0.144 0.311,0.246 0.48,0.305 0.171,0.056 0.341,0.071 0.516,0.044 0.174,-0.026 0.333,-0.093 0.469,-0.203 0.139,-0.108 0.25,-0.261 0.339,-0.456 0.084,-0.196 0.128,-0.432 0.131,-0.709 l 0,-3.119 0.627,0.11 0,3.204 c -0.003,0.032 0.01,0.073 0.029,0.126 0.021,0.05 0.038,0.091 0.054,0.127 0.098,0.225 0.222,0.414 0.375,0.561 0.15,0.145 0.314,0.248 0.487,0.31 0.17,0.059 0.339,0.076 0.516,0.049 0.169,-0.026 0.325,-0.097 0.463,-0.205 0.137,-0.115 0.25,-0.265 0.334,-0.457 0.081,-0.193 0.123,-0.429 0.126,-0.706 l 0,-3.119 0.625,0.11 z m 8.044,0 0,3.021 c -0.002,0.247 -0.032,0.488 -0.091,0.724 -0.061,0.233 -0.154,0.441 -0.281,0.624 -0.128,0.181 -0.293,0.326 -0.49,0.434 -0.202,0.107 -0.442,0.16 -0.721,0.163 -0.351,-0.003 -0.657,-0.082 -0.92,-0.238 -0.265,-0.162 -0.487,-0.389 -0.666,-0.683 -0.156,0.309 -0.354,0.539 -0.601,0.692 -0.246,0.15 -0.506,0.229 -0.78,0.238 -0.272,0.006 -0.542,-0.055 -0.806,-0.191 -0.269,-0.136 -0.495,-0.336 -0.68,-0.598 l 0,0.78 c -0.211,-0.064 -0.417,-0.115 -0.615,-0.153 l 0,-4.923 0.634,0.11 0,3.204 c -0.002,0.032 0.01,0.073 0.031,0.129 0.017,0.053 0.032,0.096 0.05,0.132 0.091,0.227 0.214,0.415 0.366,0.563 0.15,0.144 0.311,0.246 0.481,0.305 0.169,0.056 0.34,0.071 0.516,0.044 0.173,-0.026 0.331,-0.093 0.468,-0.203 0.14,-0.108 0.25,-0.261 0.337,-0.456 0.087,-0.196 0.13,-0.432 0.132,-0.709 l 0,-3.119 0.628,0.11 0,3.204 c -0.002,0.032 0.009,0.073 0.03,0.126 0.019,0.05 0.038,0.091 0.052,0.127 0.1,0.225 0.223,0.414 0.375,0.561 0.15,0.145 0.315,0.248 0.488,0.31 0.17,0.059 0.339,0.076 0.516,0.049 0.17,-0.026 0.325,-0.097 0.462,-0.205 0.139,-0.115 0.25,-0.265 0.335,-0.457 0.082,-0.193 0.123,-0.429 0.126,-0.706 l 0,-3.119"
         style="fill:#000000;fill-opacity:1;fill-rule:nonzero;stroke:none"
         id="path7716"
         inkscape:connector-curvature="0" />
      <g
         id="g7718"
         transform="scale(0.099822,-0.100178)">
        <path
           d="m 2771.07,-4188.47 -73.05,91.32"
           style="fill:none;stroke:#000000;stroke-width:6.74398994;stroke-linecap:butt;stroke-linejoin:miter;stroke-miterlimit:4;stroke-opacity:1;stroke-dasharray:none"
           id="path7720"
           inkscape:connector-curvature="0" />
      </g>
    </g>
  </g>
</svg>
