<?xml version="1.0" encoding="UTF-8" standalone="no"?>
<!-- Created with Inkscape (http://www.inkscape.org/) -->

<svg
   xmlns:dc="http://purl.org/dc/elements/1.1/"
   xmlns:cc="http://creativecommons.org/ns#"
   xmlns:rdf="http://www.w3.org/1999/02/22-rdf-syntax-ns#"
   xmlns:svg="http://www.w3.org/2000/svg"
   xmlns="http://www.w3.org/2000/svg"
   xmlns:sodipodi="http://sodipodi.sourceforge.net/DTD/sodipodi-0.dtd"
   xmlns:inkscape="http://www.inkscape.org/namespaces/inkscape"
   width="559.91473"
   height="471.27448"
   id="svg14297"
   version="1.1"
   inkscape:version="0.48.4 r9939"
   sodipodi:docname="New document 31">
  <defs
     id="defs14299" />
  <sodipodi:namedview
     id="base"
     pagecolor="#ffffff"
     bordercolor="#666666"
     borderopacity="1.0"
     inkscape:pageopacity="0.0"
     inkscape:pageshadow="2"
     inkscape:zoom="0.35"
     inkscape:cx="557.77189"
     inkscape:cy="455.67943"
     inkscape:document-units="px"
     inkscape:current-layer="layer1"
     showgrid="false"
     fit-margin-top="5"
     fit-margin-left="5"
     fit-margin-right="5"
     fit-margin-bottom="5"
     inkscape:window-width="467"
     inkscape:window-height="427"
     inkscape:window-x="808"
     inkscape:window-y="0"
     inkscape:window-maximized="0" />
  <metadata
     id="metadata14302">
    <rdf:RDF>
      <cc:Work
         rdf:about="">
        <dc:format>image/svg+xml</dc:format>
        <dc:type
           rdf:resource="http://purl.org/dc/dcmitype/StillImage" />
        <dc:title></dc:title>
      </cc:Work>
    </rdf:RDF>
  </metadata>
  <g
     inkscape:label="Layer 1"
     inkscape:groupmode="layer"
     id="layer1"
     transform="translate(182.77189,-516.76715)">
    <g
       transform="matrix(5.209703,0,0,-5.209703,-993.81521,2848.1778)"
       id="g14136">
      <path
         d="m 157.445,358.012 104.75,0 0,87.3406 -104.75,0 0,-87.3406 z"
         style="fill:#555555;fill-opacity:1;fill-rule:nonzero;stroke:none"
         id="path12939"
         inkscape:connector-curvature="0" />
      <path
         d="m 156.693,359.257 104.346,0 0,87.2551 -104.346,0 0,-87.2551 z"
         style="fill:#3a3a3a;fill-opacity:1;fill-rule:nonzero;stroke:none"
         id="path12941"
         inkscape:connector-curvature="0" />
      <g
         id="g12943"
         transform="scale(0.100019,-0.0999811)">
        <path
           d="m 2609.91,-3593.26 0,-872.71 -1043.27,0 0,872.71 1043.27,0 z"
           style="fill:none;stroke:#000000;stroke-width:0.67568302;stroke-linecap:square;stroke-linejoin:miter;stroke-miterlimit:4;stroke-opacity:1;stroke-dasharray:none"
           id="path12945"
           inkscape:connector-curvature="0" />
      </g>
      <path
         d="m 166.268,424.491 21.779,0 -0.032,13.306 7.926,0.007 0,4.982 25.547,0 -0.006,-4.995 8.25,0 0,-13.307 21.679,0 0,-57.289 -85.135,-0.186"
         style="fill:#1a1a1a;fill-opacity:1;fill-rule:nonzero;stroke:none"
         id="path12947"
         inkscape:connector-curvature="0" />
      <g
         id="g12949"
         transform="scale(0.100019,-0.0999811)">
        <path
           d="m 1662.37,-4245.71 217.74,0 -0.31,-133.11 79.24,-0.06 0,-49.81 255.42,0 -0.06,49.94 82.49,0 0,133.1 216.75,0 0,573.01 -851.19,1.85 -0.08,-574.92 z"
           style="fill:none;stroke:#393939;stroke-width:0.67568302;stroke-linecap:round;stroke-linejoin:round;stroke-miterlimit:4;stroke-opacity:1;stroke-dasharray:none"
           id="path12951"
           inkscape:connector-curvature="0" />
      </g>
      <path
         d="m 185.856,367.07 2.71875,0 0,16.7367 -2.71875,0 0,-16.7367 z"
         style="fill:#ffac00;fill-opacity:1;fill-rule:nonzero;stroke:none"
         id="path12953"
         inkscape:connector-curvature="0" />
      <g
         id="g12955"
         transform="scale(0.0913979,-0.108602)">
        <path
           d="m 2033.5,-3534.06 29.74,0 0,154.12 -29.74,0 0,-154.12 z"
           style="fill:none;stroke:#000000;stroke-width:0.67819601;stroke-linecap:round;stroke-linejoin:round;stroke-miterlimit:4;stroke-opacity:1;stroke-dasharray:none"
           id="path12957"
           inkscape:connector-curvature="0" />
      </g>
      <path
         d="m 191.915,367.07 2.71875,0 0,16.7367 -2.71875,0 0,-16.7367 z"
         style="fill:#ffac00;fill-opacity:1;fill-rule:nonzero;stroke:none"
         id="path12959"
         inkscape:connector-curvature="0" />
      <g
         id="g12961"
         transform="scale(0.0913979,-0.108602)">
        <path
           d="m 2099.77,-3534.06 29.75,0 0,154.12 -29.75,0 0,-154.12 z"
           style="fill:none;stroke:#000000;stroke-width:0.67819601;stroke-linecap:round;stroke-linejoin:round;stroke-miterlimit:4;stroke-opacity:1;stroke-dasharray:none"
           id="path12963"
           inkscape:connector-curvature="0" />
      </g>
      <path
         d="m 198.145,367.07 2.71797,0 0,16.7367 -2.71797,0 0,-16.7367 z"
         style="fill:#ffac00;fill-opacity:1;fill-rule:nonzero;stroke:none"
         id="path12965"
         inkscape:connector-curvature="0" />
      <g
         id="g12967"
         transform="scale(0.0913979,-0.108602)">
        <path
           d="m 2167.94,-3534.06 29.76,0 0,154.12 -29.76,0 0,-154.12 z"
           style="fill:none;stroke:#000000;stroke-width:0.67819601;stroke-linecap:round;stroke-linejoin:round;stroke-miterlimit:4;stroke-opacity:1;stroke-dasharray:none"
           id="path12969"
           inkscape:connector-curvature="0" />
      </g>
      <path
         d="m 204.52,367.07 2.71875,0 0,16.7367 -2.71875,0 0,-16.7367 z"
         style="fill:#ffac00;fill-opacity:1;fill-rule:nonzero;stroke:none"
         id="path12971"
         inkscape:connector-curvature="0" />
      <g
         id="g12973"
         transform="scale(0.0913979,-0.108602)">
        <path
           d="m 2237.69,-3534.06 29.76,0 0,154.12 -29.76,0 0,-154.12 z"
           style="fill:none;stroke:#000000;stroke-width:0.67819601;stroke-linecap:round;stroke-linejoin:round;stroke-miterlimit:4;stroke-opacity:1;stroke-dasharray:none"
           id="path12975"
           inkscape:connector-curvature="0" />
      </g>
      <path
         d="m 210.579,367.07 2.71875,0 0,16.7367 -2.71875,0 0,-16.7367 z"
         style="fill:#ffac00;fill-opacity:1;fill-rule:nonzero;stroke:none"
         id="path12977"
         inkscape:connector-curvature="0" />
      <g
         id="g12979"
         transform="scale(0.0913979,-0.108602)">
        <path
           d="m 2303.97,-3534.06 29.75,0 0,154.12 -29.75,0 0,-154.12 z"
           style="fill:none;stroke:#000000;stroke-width:0.67819601;stroke-linecap:round;stroke-linejoin:round;stroke-miterlimit:4;stroke-opacity:1;stroke-dasharray:none"
           id="path12981"
           inkscape:connector-curvature="0" />
      </g>
      <path
         d="m 216.81,367.07 2.71797,0 0,16.7367 -2.71797,0 0,-16.7367 z"
         style="fill:#ffac00;fill-opacity:1;fill-rule:nonzero;stroke:none"
         id="path12983"
         inkscape:connector-curvature="0" />
      <g
         id="g12985"
         transform="scale(0.0913979,-0.108602)">
        <path
           d="m 2372.15,-3534.06 29.74,0 0,154.12 -29.74,0 0,-154.12 z"
           style="fill:none;stroke:#000000;stroke-width:0.67819601;stroke-linecap:round;stroke-linejoin:round;stroke-miterlimit:4;stroke-opacity:1;stroke-dasharray:none"
           id="path12987"
           inkscape:connector-curvature="0" />
      </g>
      <path
         d="m 223.297,367.07 2.72461,0 0,16.7367 -2.72461,0 0,-16.7367 z"
         style="fill:#ffac00;fill-opacity:1;fill-rule:nonzero;stroke:none"
         id="path12989"
         inkscape:connector-curvature="0" />
      <g
         id="g12991"
         transform="scale(0.0913979,-0.108602)">
        <path
           d="m 2443.13,-3534.06 29.83,0 0,154.12 -29.83,0 0,-154.12 z"
           style="fill:none;stroke:#000000;stroke-width:0.67819601;stroke-linecap:round;stroke-linejoin:round;stroke-miterlimit:4;stroke-opacity:1;stroke-dasharray:none"
           id="path12993"
           inkscape:connector-curvature="0" />
      </g>
      <path
         d="m 229.361,367.07 2.71797,0 0,16.7367 -2.71797,0 0,-16.7367 z"
         style="fill:#ffac00;fill-opacity:1;fill-rule:nonzero;stroke:none"
         id="path12995"
         inkscape:connector-curvature="0" />
      <g
         id="g12997"
         transform="scale(0.0913979,-0.108602)">
        <path
           d="m 2509.48,-3534.06 29.76,0 0,154.12 -29.76,0 0,-154.12 z"
           style="fill:none;stroke:#000000;stroke-width:0.67819601;stroke-linecap:round;stroke-linejoin:round;stroke-miterlimit:4;stroke-opacity:1;stroke-dasharray:none"
           id="path12999"
           inkscape:connector-curvature="0" />
      </g>
      <path
         d="m 233.791,436.623 18.306,0 1.63,0.904 -21.566,0"
         style="fill:#ccd94b;fill-opacity:1;fill-rule:nonzero;stroke:none"
         id="path13001"
         inkscape:connector-curvature="0" />
      <g
         id="g13003"
         transform="scale(0.131595,-0.0684049)">
        <path
           d="m 1776.59,-6382.93 139.11,0 12.39,-13.21 -163.89,0 12.39,13.21 z"
           style="fill:none;stroke:#000000;stroke-width:0.712161;stroke-linecap:round;stroke-linejoin:round;stroke-miterlimit:4;stroke-opacity:1;stroke-dasharray:none"
           id="path13005"
           inkscape:connector-curvature="0" />
      </g>
      <path
         d="m 252.118,428.951 1.629,-0.91 0,9.5 -1.629,-0.93"
         style="fill:#ccd94b;fill-opacity:1;fill-rule:nonzero;stroke:none"
         id="path13007"
         inkscape:connector-curvature="0" />
      <g
         id="g13009"
         transform="scale(0.131595,-0.0684049)">
        <path
           d="m 1915.86,-6270.76 12.38,13.3 0,-138.87 -12.38,13.6 0,111.97 z"
           style="fill:none;stroke:#000000;stroke-width:0.712161;stroke-linecap:round;stroke-linejoin:round;stroke-miterlimit:4;stroke-opacity:1;stroke-dasharray:none"
           id="path13011"
           inkscape:connector-curvature="0" />
      </g>
      <path
         d="m 233.791,428.951 18.306,0 1.63,-0.91 -21.566,0"
         style="fill:#585f16;fill-opacity:1;fill-rule:nonzero;stroke:none"
         id="path13013"
         inkscape:connector-curvature="0" />
      <g
         id="g13015"
         transform="scale(0.131595,0.0684049)">
        <path
           d="m 1776.59,6270.76 139.11,0 12.39,-13.3 -163.89,0 12.39,13.3 z"
           style="fill:none;stroke:#000000;stroke-width:0.712161;stroke-linecap:round;stroke-linejoin:round;stroke-miterlimit:4;stroke-opacity:1;stroke-dasharray:none"
           id="path13017"
           inkscape:connector-curvature="0" />
      </g>
      <path
         d="m 233.777,428.951 -1.624,-0.91 0,9.5 1.624,-0.93"
         style="fill:#89951f;fill-opacity:1;fill-rule:nonzero;stroke:none"
         id="path13019"
         inkscape:connector-curvature="0" />
      <g
         id="g13021"
         transform="scale(-0.131595,-0.0684049)">
        <path
           d="m -1776.49,-6270.76 12.33,13.3 0,-138.87 -12.33,13.6 0,111.97 z"
           style="fill:none;stroke:#000000;stroke-width:0.712161;stroke-linecap:round;stroke-linejoin:round;stroke-miterlimit:4;stroke-opacity:1;stroke-dasharray:none"
           id="path13023"
           inkscape:connector-curvature="0" />
      </g>
      <path
         d="m 233.777,428.958 18.3398,0 0,7.66602 -18.3398,0 0,-7.66602 z"
         style="fill:#abb927;fill-opacity:1;fill-rule:nonzero;stroke:none"
         id="path13025"
         inkscape:connector-curvature="0" />
      <g
         id="g13027"
         transform="scale(0.131595,-0.0684049)">
        <path
           d="m 1776.49,-6382.93 139.37,0 0,112.07 -139.37,0 0,-112.07 z"
           style="fill:none;stroke:#000000;stroke-width:0.712161;stroke-linecap:round;stroke-linejoin:round;stroke-miterlimit:4;stroke-opacity:1;stroke-dasharray:none"
           id="path13029"
           inkscape:connector-curvature="0" />
      </g>
      <path
         d="m 165.47,436.623 18.315,0 1.623,0.904 -21.561,0"
         style="fill:#d0cfca;fill-opacity:1;fill-rule:nonzero;stroke:none"
         id="path13031"
         inkscape:connector-curvature="0" />
      <g
         id="g13033"
         transform="scale(0.131595,-0.0684049)">
        <path
           d="m 1257.42,-6382.93 139.16,0 12.35,-13.21 -163.85,0 12.34,13.21 z"
           style="fill:none;stroke:#000000;stroke-width:0.712161;stroke-linecap:round;stroke-linejoin:round;stroke-miterlimit:4;stroke-opacity:1;stroke-dasharray:none"
           id="path13035"
           inkscape:connector-curvature="0" />
      </g>
      <path
         d="m 183.805,428.951 1.623,-0.91 0,9.5 -1.623,-0.93"
         style="fill:#d0cfca;fill-opacity:1;fill-rule:nonzero;stroke:none"
         id="path13037"
         inkscape:connector-curvature="0" />
      <g
         id="g13039"
         transform="scale(0.131595,-0.0684049)">
        <path
           d="m 1396.74,-6270.76 12.34,13.3 0,-138.87 -12.34,13.6 0,111.97 z"
           style="fill:none;stroke:#000000;stroke-width:0.712161;stroke-linecap:round;stroke-linejoin:round;stroke-miterlimit:4;stroke-opacity:1;stroke-dasharray:none"
           id="path13041"
           inkscape:connector-curvature="0" />
      </g>
      <path
         d="m 165.47,428.951 18.315,0 1.623,-0.91 -21.561,0"
         style="fill:#89887a;fill-opacity:1;fill-rule:nonzero;stroke:none"
         id="path13043"
         inkscape:connector-curvature="0" />
      <g
         id="g13045"
         transform="scale(0.131595,0.0684049)">
        <path
           d="m 1257.42,6270.76 139.16,0 12.35,-13.3 -163.85,0 12.34,13.3 z"
           style="fill:none;stroke:#000000;stroke-width:0.712161;stroke-linecap:round;stroke-linejoin:round;stroke-miterlimit:4;stroke-opacity:1;stroke-dasharray:none"
           id="path13047"
           inkscape:connector-curvature="0" />
      </g>
      <path
         d="m 165.456,428.951 -1.624,-0.91 0,9.5 1.624,-0.93"
         style="fill:#aeada4;fill-opacity:1;fill-rule:nonzero;stroke:none"
         id="path13049"
         inkscape:connector-curvature="0" />
      <g
         id="g13051"
         transform="scale(-0.131595,-0.0684049)">
        <path
           d="m -1257.31,-6270.76 12.34,13.3 0,-138.87 -12.34,13.6 0,111.97 z"
           style="fill:none;stroke:#000000;stroke-width:0.712161;stroke-linecap:round;stroke-linejoin:round;stroke-miterlimit:4;stroke-opacity:1;stroke-dasharray:none"
           id="path13053"
           inkscape:connector-curvature="0" />
      </g>
      <path
         d="m 165.456,428.958 18.3465,0 0,7.66602 -18.3465,0 0,-7.66602 z"
         style="fill:#b9b8b1;fill-opacity:1;fill-rule:nonzero;stroke:none"
         id="path13055"
         inkscape:connector-curvature="0" />
      <g
         id="g13057"
         transform="scale(0.131595,-0.0684049)">
        <path
           d="m 1257.31,-6382.93 139.42,0 0,112.07 -139.42,0 0,-112.07 z"
           style="fill:none;stroke:#000000;stroke-width:0.712161;stroke-linecap:round;stroke-linejoin:round;stroke-miterlimit:4;stroke-opacity:1;stroke-dasharray:none"
           id="path13059"
           inkscape:connector-curvature="0" />
      </g>
      <path
         d="m 191.361,438.122 0,8.397 -34.688,-0.012 0.027,-86.766 9.582,7.79 -0.006,59.652 -2.765,0.087 0,10.87"
         style="fill:#ebebeb;fill-opacity:1;fill-rule:nonzero;stroke:none"
         id="path13061"
         inkscape:connector-curvature="0" />
      <g
         id="g13063"
         transform="scale(0.100019,-0.0999811)">
        <path
           d="m 1913.25,-4382.03 0,-84.01 -346.82,0.14 0.28,867.83 95.8,-77.93 -0.06,-596.64 -27.65,-0.86 0,-108.74 278.45,0.21 z"
           style="fill:none;stroke:#000000;stroke-width:0.67568302;stroke-linecap:round;stroke-linejoin:round;stroke-miterlimit:4;stroke-opacity:1;stroke-dasharray:none"
           id="path13065"
           inkscape:connector-curvature="0" />
      </g>
      <path
         d="m 166.678,366.996 -9.51,-7.732 103.515,-0.013 -9.72,7.904"
         style="fill:#ebebeb;fill-opacity:1;fill-rule:nonzero;stroke:none"
         id="path13067"
         inkscape:connector-curvature="0" />
      <g
         id="g13069"
         transform="scale(0.100019,-0.0999811)">
        <path
           d="m 1666.47,-3670.66 -95.09,77.33 1034.96,0.14 -97.17,-79.05 -842.7,1.58 z"
           style="fill:none;stroke:#000000;stroke-width:0.67568302;stroke-linecap:round;stroke-linejoin:round;stroke-miterlimit:4;stroke-opacity:1;stroke-dasharray:none"
           id="path13071"
           inkscape:connector-curvature="0" />
      </g>
      <path
         d="m 226.188,438.122 0,8.397 34.851,-0.012 -0.025,-86.766 -9.583,7.836 0.007,59.606 2.765,0.087 0,10.87"
         style="fill:#ebebeb;fill-opacity:1;fill-rule:nonzero;stroke:none"
         id="path13073"
         inkscape:connector-curvature="0" />
      <g
         id="g13075"
         transform="scale(0.100019,-0.0999811)">
        <path
           d="m 2261.46,-4382.03 0,-84.01 348.45,0.14 -0.25,867.83 -95.81,-78.4 0.06,-596.17 27.66,-0.86 0,-108.74 -280.11,0.21 z"
           style="fill:none;stroke:#000000;stroke-width:0.67568302;stroke-linecap:round;stroke-linejoin:round;stroke-miterlimit:4;stroke-opacity:1;stroke-dasharray:none"
           id="path13077"
           inkscape:connector-curvature="0" />
      </g>
      <path
         d="m 233.124,386.418 0,0.68 -1.043,0 0,8.003 -2.02,-1.01 0.133,-0.752 1.081,0.595 0,-6.849 -1.128,0 0,-0.667"
         style="fill:#ffffff;fill-opacity:1;fill-rule:nonzero;stroke:none"
         id="path13079"
         inkscape:connector-curvature="0" />
      <g
         id="g13081"
         transform="scale(0.100019,-0.0999811)">
        <path
           d="m 2330.8,-3864.91 0,-6.8 -10.43,0 0,-80.05 -20.2,10.1 1.34,7.51 10.81,-5.92 0,68.48 -11.28,0 0,6.68 29.76,0 z"
           style="fill:none;stroke:#000000;stroke-width:0.67568302;stroke-linecap:butt;stroke-linejoin:miter;stroke-miterlimit:4;stroke-opacity:1;stroke-dasharray:none"
           id="path13083"
           inkscape:connector-curvature="0" />
      </g>
      <path
         d="m 184.907,390.938 c -0.391,-0.171 -0.694,-0.395 -0.911,-0.679 -0.225,-0.291 -0.371,-0.601 -0.43,-0.937 -0.066,-0.343 -0.051,-0.686 0.033,-1.029 0.086,-0.343 0.237,-0.661 0.456,-0.944 0.218,-0.284 0.494,-0.513 0.845,-0.692 0.343,-0.178 0.751,-0.264 1.214,-0.264 0.448,0 0.845,0.086 1.195,0.264 0.343,0.179 0.627,0.408 0.845,0.685 0.217,0.277 0.369,0.588 0.453,0.944 0.087,0.343 0.1,0.693 0.041,1.036 -0.066,0.336 -0.203,0.646 -0.415,0.943 -0.211,0.29 -0.509,0.528 -0.892,0.7 0.343,0.198 0.608,0.435 0.798,0.726 0.185,0.277 0.298,0.572 0.344,0.89 0.04,0.304 0.013,0.614 -0.079,0.924 -0.099,0.302 -0.244,0.574 -0.441,0.817 -0.206,0.238 -0.457,0.436 -0.761,0.589 -0.302,0.144 -0.651,0.217 -1.042,0.224 -0.429,-0.007 -0.799,-0.08 -1.115,-0.232 -0.318,-0.158 -0.581,-0.362 -0.792,-0.608 -0.211,-0.256 -0.364,-0.533 -0.455,-0.838 -0.093,-0.308 -0.12,-0.619 -0.066,-0.928 0.039,-0.317 0.163,-0.615 0.361,-0.892 0.193,-0.277 0.463,-0.514 0.814,-0.699 z m 2.777,1.86 c -0.005,-0.355 -0.084,-0.646 -0.23,-0.871 -0.159,-0.236 -0.35,-0.408 -0.588,-0.514 -0.238,-0.118 -0.495,-0.171 -0.765,-0.171 -0.27,0 -0.522,0.053 -0.758,0.171 -0.239,0.106 -0.436,0.278 -0.581,0.501 -0.16,0.224 -0.232,0.502 -0.232,0.838 0,0.349 0.072,0.646 0.232,0.898 0.145,0.237 0.342,0.423 0.581,0.54 0.236,0.119 0.488,0.178 0.764,0.185 0.264,0 0.521,-0.06 0.759,-0.17 0.238,-0.126 0.429,-0.305 0.588,-0.537 0.146,-0.236 0.225,-0.527 0.23,-0.87 z m 0.179,-3.938 c -0.007,-0.39 -0.093,-0.706 -0.263,-0.95 -0.173,-0.257 -0.392,-0.441 -0.647,-0.568 -0.264,-0.125 -0.548,-0.191 -0.852,-0.184 -0.311,-0.007 -0.596,0.052 -0.852,0.177 -0.263,0.12 -0.481,0.304 -0.653,0.556 -0.178,0.243 -0.264,0.554 -0.257,0.922 -0.007,0.39 0.079,0.72 0.257,0.983 0.172,0.258 0.39,0.449 0.653,0.581 0.256,0.125 0.541,0.191 0.852,0.198 0.304,-0.007 0.588,-0.073 0.852,-0.198 0.255,-0.132 0.474,-0.323 0.647,-0.574 0.17,-0.257 0.256,-0.574 0.263,-0.943"
         style="fill:#ffffff;fill-opacity:1;fill-rule:nonzero;stroke:none"
         id="path13085"
         inkscape:connector-curvature="0" />
    </g>
  </g>
</svg>
