<?xml version="1.0" encoding="UTF-8" standalone="no"?>
<!-- Created with Inkscape (http://www.inkscape.org/) -->

<svg
   xmlns:dc="http://purl.org/dc/elements/1.1/"
   xmlns:cc="http://creativecommons.org/ns#"
   xmlns:rdf="http://www.w3.org/1999/02/22-rdf-syntax-ns#"
   xmlns:svg="http://www.w3.org/2000/svg"
   xmlns="http://www.w3.org/2000/svg"
   xmlns:sodipodi="http://sodipodi.sourceforge.net/DTD/sodipodi-0.dtd"
   xmlns:inkscape="http://www.inkscape.org/namespaces/inkscape"
   width="559.7403"
   height="225.14507"
   id="svg12572"
   version="1.1"
   inkscape:version="0.48.4 r9939"
   sodipodi:docname="New document 26">
  <defs
     id="defs12574" />
  <sodipodi:namedview
     id="base"
     pagecolor="#ffffff"
     bordercolor="#666666"
     borderopacity="1.0"
     inkscape:pageopacity="0.0"
     inkscape:pageshadow="2"
     inkscape:zoom="0.35"
     inkscape:cx="279.87046"
     inkscape:cy="112.57467"
     inkscape:document-units="px"
     inkscape:current-layer="layer1"
     showgrid="false"
     fit-margin-top="5"
     fit-margin-left="5"
     fit-margin-right="5"
     fit-margin-bottom="5"
     inkscape:window-width="1280"
     inkscape:window-height="778"
     inkscape:window-x="0"
     inkscape:window-y="0"
     inkscape:window-maximized="1" />
  <metadata
     id="metadata12577">
    <rdf:RDF>
      <cc:Work
         rdf:about="">
        <dc:format>image/svg+xml</dc:format>
        <dc:type
           rdf:resource="http://purl.org/dc/dcmitype/StillImage" />
        <dc:title></dc:title>
      </cc:Work>
    </rdf:RDF>
  </metadata>
  <g
     inkscape:label="Layer 1"
     inkscape:groupmode="layer"
     id="layer1"
     transform="translate(-95.129538,-419.79178)">
    <g
       transform="matrix(4.9313231,0,0,-4.9313231,-657.91739,2582.9354)"
       id="g12371">
      <path
         d="m 160.305,437.609 98.502,0.006 c 3.818,-0.158 6.317,-3.513 6.369,-6.228 l -0.018,-22.091 c -0.151,-2.429 -1.065,-3.564 -2.61,-4.414 -6.194,-2.173 -7.835,-2.055 -11.382,-8.555 -0.941,-1.678 -2.373,-2.236 -4.176,-2.293 l -75.384,0.029 c -1.624,0.09 -3.096,0.652 -4.086,2.651 -2.858,4.947 -3.94,5.896 -9.946,7.71 -2.354,0.698 -3.775,2.244 -3.83,5.022 l 0.013,22.304 c 0.171,3.185 3.595,5.793 6.548,5.859"
         style="fill:#e6e6e6;fill-opacity:1;fill-rule:nonzero;stroke:none"
         id="path11054"
         inkscape:connector-curvature="0" />
      <g
         id="g11056"
         transform="scale(0.0999282,-0.100072)">
        <path
           d="m 1604.21,-4372.98 985.73,-0.03 c 38.2,1.56 63.21,35.09 63.73,62.23 l -0.17,220.75 c -1.52,24.27 -10.69,35.61 -26.13,44.1 -61.99,21.72 -78.41,20.54 -113.91,85.5 -9.4,16.77 -23.74,22.34 -41.78,22.9 l -754.39,-0.29 c -16.24,-0.9 -30.97,-6.52 -40.89,-26.48 -28.6,-49.43 -39.42,-58.92 -99.53,-77.06 -23.55,-6.98 -37.77,-22.43 -38.32,-50.18 l 0.13,-222.89 c 1.7,-31.82 35.97,-57.88 65.53,-58.55 z"
           style="fill:none;stroke:#000000;stroke-width:0.48344401;stroke-linecap:round;stroke-linejoin:round;stroke-miterlimit:4;stroke-opacity:1;stroke-dasharray:none"
           id="path11058"
           inkscape:connector-curvature="0" />
      </g>
      <path
         d="m 160.42,434.316 98.28,0 c 1.519,-0.184 2.966,-1.527 3.184,-3.005 l 0.018,-21.699 c -0.056,-0.883 -0.188,-1.408 -1.16,-1.895 -9.611,-2.91 -10.237,-6.213 -12.422,-9.737 -0.32,-0.501 -0.76,-0.605 -1.217,-0.643 l -75.385,0.019 c -0.778,0.043 -1.013,0.383 -1.213,0.832 -2.5,4.526 -4.189,7.001 -11.609,9.275 -1.521,0.477 -1.793,0.949 -1.87,2.2 l 0.025,21.648 c 0.023,1.319 1.655,2.787 3.369,3.005"
         style="fill:#191919;fill-opacity:1;fill-rule:nonzero;stroke:none"
         id="path11060"
         inkscape:connector-curvature="0" />
      <g
         id="g11062"
         transform="scale(0.0999282,-0.100072)">
        <path
           d="m 1605.35,-4340.06 983.5,0 c 15.2,1.83 29.7,15.25 31.87,30.02 l 0.18,216.85 c -0.56,8.83 -1.88,14.07 -11.6,18.93 -96.18,29.07 -102.45,62.09 -124.31,97.31 -3.2,5 -7.61,6.04 -12.2,6.42 l -754.37,-0.19 c -7.79,-0.44 -10.14,-3.83 -12.15,-8.31 -25.01,-45.23 -41.9,-69.97 -116.18,-92.68 -15.19,-4.76 -17.93,-9.48 -18.7,-22 l 0.25,-216.33 c 0.23,-13.17 16.56,-27.84 33.71,-30.02 z"
           style="fill:none;stroke:#000000;stroke-width:0.48344401;stroke-linecap:round;stroke-linejoin:round;stroke-miterlimit:4;stroke-opacity:1;stroke-dasharray:none"
           id="path11064"
           inkscape:connector-curvature="0" />
      </g>
      <path
         d="m 171.562,424.706 75.805,0 c 0.505,0 0.906,-0.477 0.906,-1.072 l 0,-2.873 c 0,-0.6 -0.401,-1.081 -0.906,-1.081 l -75.805,0 c -0.499,0 -0.907,0.481 -0.907,1.081 l 0,2.873 c 0,0.595 0.408,1.072 0.907,1.072"
         style="fill:#2d2d2d;fill-opacity:1;fill-rule:nonzero;stroke:none"
         id="path11066"
         inkscape:connector-curvature="0" />
      <g
         id="g11068"
         transform="scale(0.0999282,-0.100072)">
        <path
           d="m 1716.85,-4244.03 758.6,0 c 5.05,0 9.06,4.77 9.06,10.72 l 0,28.7 c 0,5.99 -4.01,10.8 -9.06,10.8 l -758.6,0 c -5,0 -9.07,-4.81 -9.07,-10.8 l 0,-28.7 c 0,-5.95 4.07,-10.72 9.07,-10.72 z"
           style="fill:none;stroke:#000000;stroke-width:0.48344401;stroke-linecap:round;stroke-linejoin:round;stroke-miterlimit:4;stroke-opacity:1;stroke-dasharray:none"
           id="path11070"
           inkscape:connector-curvature="0" />
      </g>
      <path
         d="m 168.888,426.388 81.164,0 -2.43,-2.098 -76.301,0"
         style="fill:#696969;fill-opacity:1;fill-rule:nonzero;stroke:none"
         id="path11072"
         inkscape:connector-curvature="0" />
      <g
         id="g11074"
         transform="scale(0.0999282,-0.100072)">
        <path
           d="m 1690.1,-4260.84 812.22,0 -24.33,20.97 -763.55,0 -24.34,-20.97 z"
           style="fill:none;stroke:#000000;stroke-width:0.48344401;stroke-linecap:round;stroke-linejoin:round;stroke-miterlimit:4;stroke-opacity:1;stroke-dasharray:none"
           id="path11076"
           inkscape:connector-curvature="0" />
      </g>
      <path
         d="m 171.321,420.104 -2.433,-0.709 0,7.007 2.433,-2.101"
         style="fill:#434343;fill-opacity:1;fill-rule:nonzero;stroke:none"
         id="path11078"
         inkscape:connector-curvature="0" />
      <g
         id="g11080"
         transform="scale(0.0999282,-0.100072)">
        <path
           d="m 1714.44,-4198.04 -24.34,7.08 0,-70.02 24.34,21.01 0,41.93 z"
           style="fill:none;stroke:#000000;stroke-width:0.48344401;stroke-linecap:round;stroke-linejoin:round;stroke-miterlimit:4;stroke-opacity:1;stroke-dasharray:none"
           id="path11082"
           inkscape:connector-curvature="0" />
      </g>
      <path
         d="m 247.607,424.301 2.434,2.101 0,-7.007 -2.434,0.709"
         style="fill:#434343;fill-opacity:1;fill-rule:nonzero;stroke:none"
         id="path11084"
         inkscape:connector-curvature="0" />
      <g
         id="g11086"
         transform="scale(0.0999282,-0.100072)">
        <path
           d="m 2477.85,-4239.97 24.37,-21.01 0,70.02 -24.37,-7.08 0,-41.93 z"
           style="fill:none;stroke:#000000;stroke-width:0.48344401;stroke-linecap:round;stroke-linejoin:round;stroke-miterlimit:4;stroke-opacity:1;stroke-dasharray:none"
           id="path11088"
           inkscape:connector-curvature="0" />
      </g>
      <path
         d="m 168.888,419.395 2.433,0.709 76.301,0 2.43,-0.709"
         style="fill:#313131;fill-opacity:1;fill-rule:nonzero;stroke:none"
         id="path11090"
         inkscape:connector-curvature="0" />
      <g
         id="g11092"
         transform="scale(0.0999282,-0.100072)">
        <path
           d="m 1690.1,-4190.96 24.34,-7.08 763.55,0 24.33,7.08 -812.22,0 z"
           style="fill:none;stroke:#000000;stroke-width:0.48344401;stroke-linecap:round;stroke-linejoin:round;stroke-miterlimit:4;stroke-opacity:1;stroke-dasharray:none"
           id="path11094"
           inkscape:connector-curvature="0" />
      </g>
      <path
         d="m 172.214,424.29 74.502,0 c 0.495,0 0.891,-0.396 0.891,-0.892 l 0,-2.401 c 0,-0.5 -0.396,-0.902 -0.891,-0.902 l -74.502,0 c -0.492,0 -0.893,0.402 -0.893,0.902 l 0,2.401 c 0,0.496 0.401,0.892 0.893,0.892"
         style="fill:#464646;fill-opacity:1;fill-rule:nonzero;stroke:none"
         id="path11096"
         inkscape:connector-curvature="0" />
      <g
         id="g11098"
         transform="scale(0.0999282,-0.100072)">
        <path
           d="m 1723.38,-4239.87 745.55,0 c 4.96,0 8.92,3.96 8.92,8.91 l 0,23.99 c 0,5.01 -3.96,9.03 -8.92,9.03 l -745.55,0 c -4.92,0 -8.94,-4.02 -8.94,-9.03 l 0,-23.99 c 0,-4.95 4.02,-8.91 8.94,-8.91 z"
           style="fill:none;stroke:#000000;stroke-width:0.48344401;stroke-linecap:round;stroke-linejoin:round;stroke-miterlimit:4;stroke-opacity:1;stroke-dasharray:none"
           id="path11100"
           inkscape:connector-curvature="0" />
      </g>
      <g
         id="g11102"
         transform="scale(0.1074,-0.0926001)">
        <path
           d="m 1603.49,-4581.97 693.68,0 c 4.61,0 8.31,4.28 8.31,9.69 l 0,25.87 c 0,5.41 -3.7,9.7 -8.31,9.7 l -693.68,0 c -4.62,0 -8.32,-4.29 -8.32,-9.7 l 0,-25.87 c 0,-5.41 3.7,-9.69 8.32,-9.69 z"
           style="fill:none;stroke:#000000;stroke-width:0.48477101;stroke-linecap:round;stroke-linejoin:round;stroke-miterlimit:4;stroke-opacity:1;stroke-dasharray:none"
           id="path11104"
           inkscape:connector-curvature="0" />
      </g>
      <path
         d="m 169.577,419.784 1.994,0 c 0.048,0 0.086,-0.043 0.086,-0.098 l 0,-0.64 c 0,-0.057 -0.038,-0.105 -0.086,-0.105 l -1.994,0 c -0.042,0 -0.085,0.044 -0.085,0.105 l 0,0.64 c 0,0.055 0.043,0.098 0.085,0.098"
         style="fill:#e0af10;fill-opacity:1;fill-rule:evenodd;stroke:none"
         id="path11106"
         inkscape:connector-curvature="0" />
      <g
         id="g11108"
         transform="scale(0.0465926,-0.153407)">
        <path
           d="m 3639.54,-2736.39 42.84,0 c 1.01,0 1.82,0.29 1.82,0.65 l 0,4.16 c 0,0.36 -0.81,0.67 -1.82,0.67 l -42.84,0 c -0.9,0 -1.82,-0.27 -1.82,-0.67 l 0,-4.16 c 0,-0.36 0.92,-0.65 1.82,-0.65 z"
           style="fill:none;stroke:#000000;stroke-width:0.57182401;stroke-linecap:round;stroke-linejoin:round;stroke-miterlimit:4;stroke-opacity:1;stroke-dasharray:none"
           id="path11110"
           inkscape:connector-curvature="0" />
      </g>
      <path
         d="m 173.818,419.784 1.99,0 c 0.047,0 0.085,-0.038 0.085,-0.104 l 0,-0.634 c 0,-0.051 -0.038,-0.098 -0.085,-0.098 l -1.99,0 c -0.052,0 -0.09,0.051 -0.09,0.098 l 0,0.634 c 0,0.066 0.038,0.104 0.09,0.104"
         style="fill:#e0af10;fill-opacity:1;fill-rule:evenodd;stroke:none"
         id="path11112"
         inkscape:connector-curvature="0" />
      <g
         id="g11114"
         transform="scale(0.0465926,-0.153407)">
        <path
           d="m 3730.59,-2736.39 42.72,0 c 1,0 1.82,0.25 1.82,0.67 l 0,4.14 c 0,0.34 -0.82,0.64 -1.82,0.64 l -42.72,0 c -1.13,0 -1.94,-0.34 -1.94,-0.64 l 0,-4.14 c 0,-0.42 0.81,-0.67 1.94,-0.67 z"
           style="fill:none;stroke:#000000;stroke-width:0.57182401;stroke-linecap:round;stroke-linejoin:round;stroke-miterlimit:4;stroke-opacity:1;stroke-dasharray:none"
           id="path11116"
           inkscape:connector-curvature="0" />
      </g>
      <path
         d="m 178.097,419.784 1.991,0 c 0.046,0 0.083,-0.043 0.083,-0.098 l 0,-0.64 c 0,-0.057 -0.037,-0.105 -0.083,-0.105 l -1.991,0 c -0.052,0 -0.09,0.054 -0.09,0.105 l 0,0.64 c 0,0.055 0.038,0.098 0.09,0.098"
         style="fill:#e0af10;fill-opacity:1;fill-rule:evenodd;stroke:none"
         id="path11118"
         inkscape:connector-curvature="0" />
      <g
         id="g11120"
         transform="scale(0.0465926,-0.153407)">
        <path
           d="m 3822.41,-2736.39 42.74,0 c 1.02,0 1.83,0.29 1.83,0.65 l 0,4.16 c 0,0.36 -0.81,0.67 -1.83,0.67 l -42.74,0 c -1.11,0 -1.92,-0.33 -1.92,-0.67 l 0,-4.16 c 0,-0.36 0.81,-0.65 1.92,-0.65 z"
           style="fill:none;stroke:#000000;stroke-width:0.57182401;stroke-linecap:round;stroke-linejoin:round;stroke-miterlimit:4;stroke-opacity:1;stroke-dasharray:none"
           id="path11122"
           inkscape:connector-curvature="0" />
      </g>
      <path
         d="m 182.503,419.784 1.995,0 c 0.048,0 0.086,-0.043 0.086,-0.098 l 0,-0.64 c 0,-0.057 -0.038,-0.105 -0.086,-0.105 l -1.995,0 c -0.043,0 -0.085,0.054 -0.085,0.105 l 0,0.64 c 0,0.055 0.042,0.098 0.085,0.098"
         style="fill:#e0af10;fill-opacity:1;fill-rule:evenodd;stroke:none"
         id="path11124"
         inkscape:connector-curvature="0" />
      <g
         id="g11126"
         transform="scale(0.0465926,-0.153407)">
        <path
           d="m 3916.98,-2736.39 42.84,0 c 1.01,0 1.83,0.29 1.83,0.65 l 0,4.16 c 0,0.36 -0.82,0.67 -1.83,0.67 l -42.84,0 c -0.9,0 -1.82,-0.33 -1.82,-0.67 l 0,-4.16 c 0,-0.36 0.92,-0.65 1.82,-0.65 z"
           style="fill:none;stroke:#000000;stroke-width:0.57182401;stroke-linecap:round;stroke-linejoin:round;stroke-miterlimit:4;stroke-opacity:1;stroke-dasharray:none"
           id="path11128"
           inkscape:connector-curvature="0" />
      </g>
      <path
         d="m 186.871,419.784 1.992,0 c 0.047,0 0.084,-0.038 0.084,-0.104 l 0,-0.639 c 0,-0.052 -0.037,-0.093 -0.084,-0.093 l -1.992,0 c -0.051,0 -0.089,0.041 -0.089,0.093 l 0,0.639 c 0,0.066 0.038,0.104 0.089,0.104"
         style="fill:#e0af10;fill-opacity:1;fill-rule:evenodd;stroke:none"
         id="path11130"
         inkscape:connector-curvature="0" />
      <g
         id="g11132"
         transform="scale(0.0465926,-0.153407)">
        <path
           d="m 4010.75,-2736.39 42.74,0 c 1,0 1.81,0.25 1.81,0.67 l 0,4.17 c 0,0.33 -0.81,0.61 -1.81,0.61 l -42.74,0 c -1.1,0 -1.92,-0.28 -1.92,-0.61 l 0,-4.17 c 0,-0.42 0.82,-0.67 1.92,-0.67 z"
           style="fill:none;stroke:#000000;stroke-width:0.57182401;stroke-linecap:round;stroke-linejoin:round;stroke-miterlimit:4;stroke-opacity:1;stroke-dasharray:none"
           id="path11134"
           inkscape:connector-curvature="0" />
      </g>
      <path
         d="m 191.278,419.779 1.995,0 c 0.047,0 0.085,-0.038 0.085,-0.104 l 0,-0.624 c 0,-0.056 -0.038,-0.103 -0.085,-0.103 l -1.995,0 c -0.042,0 -0.085,0.041 -0.085,0.103 l 0,0.624 c 0,0.066 0.043,0.104 0.085,0.104"
         style="fill:#e0af10;fill-opacity:1;fill-rule:evenodd;stroke:none"
         id="path11136"
         inkscape:connector-curvature="0" />
      <g
         id="g11138"
         transform="scale(0.0465926,-0.153407)">
        <path
           d="m 4105.32,-2736.36 42.84,0 c 0.99,0 1.82,0.26 1.82,0.68 l 0,4.07 c 0,0.37 -0.83,0.67 -1.82,0.67 l -42.84,0 c -0.91,0 -1.82,-0.28 -1.82,-0.67 l 0,-4.07 c 0,-0.42 0.91,-0.68 1.82,-0.68 z"
           style="fill:none;stroke:#000000;stroke-width:0.57182401;stroke-linecap:round;stroke-linejoin:round;stroke-miterlimit:4;stroke-opacity:1;stroke-dasharray:none"
           id="path11140"
           inkscape:connector-curvature="0" />
      </g>
      <path
         d="m 195.618,419.784 1.992,0 c 0.052,0 0.084,-0.038 0.084,-0.104 l 0,-0.634 c 0,-0.051 -0.032,-0.098 -0.084,-0.098 l -1.992,0 c -0.048,0 -0.084,0.051 -0.084,0.098 l 0,0.634 c 0,0.066 0.031,0.104 0.084,0.104"
         style="fill:#e0af10;fill-opacity:1;fill-rule:evenodd;stroke:none"
         id="path11142"
         inkscape:connector-curvature="0" />
      <g
         id="g11144"
         transform="scale(0.0465926,-0.153407)">
        <path
           d="m 4198.48,-2736.39 42.73,0 c 1.11,0 1.83,0.25 1.83,0.67 l 0,4.14 c 0,0.34 -0.72,0.64 -1.83,0.64 l -42.73,0 c -1.02,0 -1.82,-0.34 -1.82,-0.64 l 0,-4.14 c 0,-0.42 0.7,-0.67 1.82,-0.67 z"
           style="fill:none;stroke:#000000;stroke-width:0.57182401;stroke-linecap:round;stroke-linejoin:round;stroke-miterlimit:4;stroke-opacity:1;stroke-dasharray:none"
           id="path11146"
           inkscape:connector-curvature="0" />
      </g>
      <path
         d="m 199.949,419.784 1.992,0 c 0.047,0 0.084,-0.043 0.084,-0.098 l 0,-0.64 c 0,-0.057 -0.037,-0.105 -0.084,-0.105 l -1.992,0 c -0.047,0 -0.084,0.054 -0.084,0.105 l 0,0.64 c 0,0.055 0.037,0.098 0.084,0.098"
         style="fill:#e0af10;fill-opacity:1;fill-rule:evenodd;stroke:none"
         id="path11148"
         inkscape:connector-curvature="0" />
      <g
         id="g11150"
         transform="scale(0.0465926,-0.153407)">
        <path
           d="m 4291.43,-2736.39 42.73,0 c 1.01,0 1.83,0.29 1.83,0.65 l 0,4.16 c 0,0.36 -0.82,0.67 -1.83,0.67 l -42.73,0 c -1.02,0 -1.82,-0.33 -1.82,-0.67 l 0,-4.16 c 0,-0.36 0.8,-0.65 1.82,-0.65 z"
           style="fill:none;stroke:#000000;stroke-width:0.57182401;stroke-linecap:round;stroke-linejoin:round;stroke-miterlimit:4;stroke-opacity:1;stroke-dasharray:none"
           id="path11152"
           inkscape:connector-curvature="0" />
      </g>
      <path
         d="m 204.28,419.784 1.997,0 c 0.046,0 0.084,-0.038 0.084,-0.104 l 0,-0.639 c 0,-0.052 -0.038,-0.093 -0.084,-0.093 l -1.997,0 c -0.047,0 -0.084,0.041 -0.084,0.093 l 0,0.639 c 0,0.066 0.037,0.104 0.084,0.104"
         style="fill:#e0af10;fill-opacity:1;fill-rule:evenodd;stroke:none"
         id="path11154"
         inkscape:connector-curvature="0" />
      <g
         id="g11156"
         transform="scale(0.0465926,-0.153407)">
        <path
           d="m 4384.38,-2736.39 42.83,0 c 1.02,0 1.82,0.25 1.82,0.67 l 0,4.17 c 0,0.33 -0.8,0.61 -1.82,0.61 l -42.83,0 c -1.02,0 -1.82,-0.28 -1.82,-0.61 l 0,-4.17 c 0,-0.42 0.8,-0.67 1.82,-0.67 z"
           style="fill:none;stroke:#000000;stroke-width:0.57182401;stroke-linecap:round;stroke-linejoin:round;stroke-miterlimit:4;stroke-opacity:1;stroke-dasharray:none"
           id="path11158"
           inkscape:connector-curvature="0" />
      </g>
      <path
         d="m 208.597,419.784 1.996,0 c 0.046,0 0.084,-0.043 0.084,-0.098 l 0,-0.64 c 0,-0.057 -0.038,-0.105 -0.084,-0.105 l -1.996,0 c -0.043,0 -0.085,0.044 -0.085,0.105 l 0,0.64 c 0,0.055 0.042,0.098 0.085,0.098"
         style="fill:#e0af10;fill-opacity:1;fill-rule:evenodd;stroke:none"
         id="path11160"
         inkscape:connector-curvature="0" />
      <g
         id="g11162"
         transform="scale(0.0699203,-0.13008)">
        <path
           d="m 2983.35,-3227.13 28.53,0 c 0.69,0 1.23,0.32 1.23,0.77 l 0,4.89 c 0,0.43 -0.54,0.8 -1.23,0.8 l -28.53,0 c -0.61,0 -1.21,-0.33 -1.21,-0.8 l 0,-4.89 c 0,-0.45 0.6,-0.77 1.21,-0.77 z"
           style="fill:none;stroke:#000000;stroke-width:0.50691903;stroke-linecap:round;stroke-linejoin:round;stroke-miterlimit:4;stroke-opacity:1;stroke-dasharray:none"
           id="path11164"
           inkscape:connector-curvature="0" />
      </g>
      <path
         d="m 212.838,419.784 1.992,0 c 0.047,0 0.089,-0.038 0.089,-0.104 l 0,-0.634 c 0,-0.051 -0.042,-0.098 -0.089,-0.098 l -1.992,0 c -0.053,0 -0.085,0.051 -0.085,0.098 l 0,0.634 c 0,0.066 0.032,0.104 0.085,0.104"
         style="fill:#e0af10;fill-opacity:1;fill-rule:evenodd;stroke:none"
         id="path11166"
         inkscape:connector-curvature="0" />
      <g
         id="g11168"
         transform="scale(0.0699203,-0.13008)">
        <path
           d="m 3044.01,-3227.13 28.47,0 c 0.68,0 1.29,0.29 1.29,0.79 l 0,4.87 c 0,0.4 -0.61,0.76 -1.29,0.76 l -28.47,0 c -0.74,0 -1.21,-0.4 -1.21,-0.76 l 0,-4.87 c 0,-0.5 0.47,-0.79 1.21,-0.79 z"
           style="fill:none;stroke:#000000;stroke-width:0.50691903;stroke-linecap:round;stroke-linejoin:round;stroke-miterlimit:4;stroke-opacity:1;stroke-dasharray:none"
           id="path11170"
           inkscape:connector-curvature="0" />
      </g>
      <path
         d="m 217.116,419.784 1.992,0 c 0.053,0 0.09,-0.043 0.09,-0.098 l 0,-0.64 c 0,-0.057 -0.037,-0.105 -0.09,-0.105 l -1.992,0 c -0.047,0 -0.084,0.054 -0.084,0.105 l 0,0.64 c 0,0.055 0.037,0.098 0.084,0.098"
         style="fill:#e0af10;fill-opacity:1;fill-rule:evenodd;stroke:none"
         id="path11172"
         inkscape:connector-curvature="0" />
      <g
         id="g11174"
         transform="scale(0.0699203,-0.13008)">
        <path
           d="m 3105.2,-3227.13 28.49,0 c 0.73,0 1.28,0.32 1.28,0.77 l 0,4.89 c 0,0.43 -0.55,0.8 -1.28,0.8 l -28.49,0 c -0.66,0 -1.2,-0.4 -1.2,-0.8 l 0,-4.89 c 0,-0.45 0.54,-0.77 1.2,-0.77 z"
           style="fill:none;stroke:#000000;stroke-width:0.50691903;stroke-linecap:round;stroke-linejoin:round;stroke-miterlimit:4;stroke-opacity:1;stroke-dasharray:none"
           id="path11176"
           inkscape:connector-curvature="0" />
      </g>
      <path
         d="m 221.529,419.784 1.99,0 c 0.052,0 0.084,-0.043 0.084,-0.098 l 0,-0.64 c 0,-0.057 -0.032,-0.105 -0.084,-0.105 l -1.99,0 c -0.049,0 -0.086,0.054 -0.086,0.105 l 0,0.64 c 0,0.055 0.037,0.098 0.086,0.098"
         style="fill:#e0af10;fill-opacity:1;fill-rule:evenodd;stroke:none"
         id="path11178"
         inkscape:connector-curvature="0" />
      <g
         id="g11180"
         transform="scale(0.0699203,-0.13008)">
        <path
           d="m 3168.3,-3227.13 28.47,0 c 0.74,0 1.21,0.32 1.21,0.77 l 0,4.89 c 0,0.43 -0.47,0.8 -1.21,0.8 l -28.47,0 c -0.68,0 -1.22,-0.4 -1.22,-0.8 l 0,-4.89 c 0,-0.45 0.54,-0.77 1.22,-0.77 z"
           style="fill:none;stroke:#000000;stroke-width:0.50691903;stroke-linecap:round;stroke-linejoin:round;stroke-miterlimit:4;stroke-opacity:1;stroke-dasharray:none"
           id="path11182"
           inkscape:connector-curvature="0" />
      </g>
      <path
         d="m 225.892,419.784 1.99,0 c 0.047,0 0.09,-0.038 0.09,-0.104 l 0,-0.639 c 0,-0.052 -0.038,-0.093 -0.09,-0.093 l -1.99,0 c -0.047,0 -0.085,0.041 -0.085,0.093 l 0,0.639 c 0,0.066 0.033,0.104 0.085,0.104"
         style="fill:#e0af10;fill-opacity:1;fill-rule:evenodd;stroke:none"
         id="path11184"
         inkscape:connector-curvature="0" />
      <g
         id="g11186"
         transform="scale(0.0699203,-0.13008)">
        <path
           d="m 3230.71,-3227.13 28.47,0 c 0.68,0 1.29,0.29 1.29,0.79 l 0,4.91 c 0,0.39 -0.55,0.72 -1.29,0.72 l -28.47,0 c -0.67,0 -1.23,-0.33 -1.23,-0.72 l 0,-4.91 c 0,-0.5 0.48,-0.79 1.23,-0.79 z"
           style="fill:none;stroke:#000000;stroke-width:0.50691903;stroke-linecap:round;stroke-linejoin:round;stroke-miterlimit:4;stroke-opacity:1;stroke-dasharray:none"
           id="path11188"
           inkscape:connector-curvature="0" />
      </g>
      <path
         d="m 230.303,419.779 1.992,0 c 0.047,0 0.084,-0.038 0.084,-0.104 l 0,-0.624 c 0,-0.056 -0.037,-0.103 -0.084,-0.103 l -1.992,0 c -0.047,0 -0.089,0.041 -0.089,0.103 l 0,0.624 c 0,0.066 0.042,0.104 0.089,0.104"
         style="fill:#e0af10;fill-opacity:1;fill-rule:evenodd;stroke:none"
         id="path11190"
         inkscape:connector-curvature="0" />
      <g
         id="g11192"
         transform="scale(0.0699203,-0.13008)">
        <path
           d="m 3293.79,-3227.11 28.48,0 c 0.67,0 1.22,0.3 1.22,0.81 l 0,4.8 c 0,0.43 -0.55,0.79 -1.22,0.79 l -28.48,0 c -0.67,0 -1.27,-0.33 -1.27,-0.79 l 0,-4.8 c 0,-0.51 0.6,-0.81 1.27,-0.81 z"
           style="fill:none;stroke:#000000;stroke-width:0.50691903;stroke-linecap:round;stroke-linejoin:round;stroke-miterlimit:4;stroke-opacity:1;stroke-dasharray:none"
           id="path11194"
           inkscape:connector-curvature="0" />
      </g>
      <path
         d="m 234.638,419.784 1.996,0 c 0.047,0 0.085,-0.038 0.085,-0.104 l 0,-0.634 c 0,-0.051 -0.038,-0.098 -0.085,-0.098 l -1.996,0 c -0.046,0 -0.084,0.051 -0.084,0.098 l 0,0.634 c 0,0.066 0.038,0.104 0.084,0.104"
         style="fill:#e0af10;fill-opacity:1;fill-rule:evenodd;stroke:none"
         id="path11196"
         inkscape:connector-curvature="0" />
      <g
         id="g11198"
         transform="scale(0.0699203,-0.13008)">
        <path
           d="m 3355.81,-3227.13 28.53,0 c 0.68,0 1.21,0.29 1.21,0.79 l 0,4.87 c 0,0.4 -0.53,0.76 -1.21,0.76 l -28.53,0 c -0.69,0 -1.23,-0.4 -1.23,-0.76 l 0,-4.87 c 0,-0.5 0.54,-0.79 1.23,-0.79 z"
           style="fill:none;stroke:#000000;stroke-width:0.50691903;stroke-linecap:round;stroke-linejoin:round;stroke-miterlimit:4;stroke-opacity:1;stroke-dasharray:none"
           id="path11200"
           inkscape:connector-curvature="0" />
      </g>
      <path
         d="m 238.969,419.784 1.996,0 c 0.047,0 0.085,-0.043 0.085,-0.098 l 0,-0.64 c 0,-0.057 -0.038,-0.105 -0.085,-0.105 l -1.996,0 c -0.047,0 -0.084,0.054 -0.084,0.105 l 0,0.64 c 0,0.055 0.037,0.098 0.084,0.098"
         style="fill:#e0af10;fill-opacity:1;fill-rule:evenodd;stroke:none"
         id="path11202"
         inkscape:connector-curvature="0" />
      <g
         id="g11204"
         transform="scale(0.0699203,-0.13008)">
        <path
           d="m 3417.75,-3227.13 28.54,0 c 0.67,0 1.21,0.32 1.21,0.77 l 0,4.89 c 0,0.43 -0.54,0.8 -1.21,0.8 l -28.54,0 c -0.68,0 -1.22,-0.4 -1.22,-0.8 l 0,-4.89 c 0,-0.45 0.54,-0.77 1.22,-0.77 z"
           style="fill:none;stroke:#000000;stroke-width:0.50691903;stroke-linecap:round;stroke-linejoin:round;stroke-miterlimit:4;stroke-opacity:1;stroke-dasharray:none"
           id="path11206"
           inkscape:connector-curvature="0" />
      </g>
      <path
         d="m 243.306,419.784 1.994,0 c 0.043,0 0.086,-0.038 0.086,-0.104 l 0,-0.639 c 0,-0.052 -0.043,-0.093 -0.086,-0.093 l -1.994,0 c -0.048,0 -0.086,0.041 -0.086,0.093 l 0,0.639 c 0,0.066 0.038,0.104 0.086,0.104"
         style="fill:#e0af10;fill-opacity:1;fill-rule:evenodd;stroke:none"
         id="path11208"
         inkscape:connector-curvature="0" />
      <g
         id="g11210"
         transform="scale(0.0699203,-0.13008)">
        <path
           d="m 3479.76,-3227.13 28.53,0 c 0.6,0 1.23,0.29 1.23,0.79 l 0,4.91 c 0,0.39 -0.63,0.72 -1.23,0.72 l -28.53,0 c -0.69,0 -1.22,-0.33 -1.22,-0.72 l 0,-4.91 c 0,-0.5 0.53,-0.79 1.22,-0.79 z"
           style="fill:none;stroke:#000000;stroke-width:0.50691903;stroke-linecap:round;stroke-linejoin:round;stroke-miterlimit:4;stroke-opacity:1;stroke-dasharray:none"
           id="path11212"
           inkscape:connector-curvature="0" />
      </g>
      <path
         d="m 247.457,419.784 1.991,0 c 0.048,0 0.085,-0.038 0.085,-0.104 l 0,-0.639 c 0,-0.052 -0.037,-0.093 -0.085,-0.093 l -1.991,0 c -0.047,0 -0.086,0.041 -0.086,0.093 l 0,0.639 c 0,0.066 0.033,0.104 0.086,0.104"
         style="fill:#e0af10;fill-opacity:1;fill-rule:evenodd;stroke:none"
         id="path11214"
         inkscape:connector-curvature="0" />
      <g
         id="g11216"
         transform="scale(0.0699203,-0.13008)">
        <path
           d="m 3539.13,-3227.13 28.48,0 c 0.66,0 1.2,0.29 1.2,0.79 l 0,4.91 c 0,0.39 -0.54,0.72 -1.2,0.72 l -28.48,0 c -0.69,0 -1.21,-0.33 -1.21,-0.72 l 0,-4.91 c 0,-0.5 0.47,-0.79 1.21,-0.79 z"
           style="fill:none;stroke:#000000;stroke-width:0.50691903;stroke-linecap:round;stroke-linejoin:round;stroke-miterlimit:4;stroke-opacity:1;stroke-dasharray:none"
           id="path11218"
           inkscape:connector-curvature="0" />
      </g>
      <path
         d="m 173.893,397.445 71.143,0 0,1.42656 -71.143,0 0,-1.42656 z"
         style="fill:#000000;fill-opacity:1;fill-rule:nonzero;stroke:none"
         id="path11220"
         inkscape:connector-curvature="0" />
      <g
         id="g11222"
         transform="scale(0.0999282,-0.100072)">
        <path
           d="m 1740.18,-3985.88 711.94,0 0,14.27 -711.94,0 0,-14.27 z"
           style="fill:none;stroke:#000000;stroke-width:0.48344401;stroke-linecap:round;stroke-linejoin:round;stroke-miterlimit:4;stroke-opacity:1;stroke-dasharray:none"
           id="path11224"
           inkscape:connector-curvature="0" />
      </g>
      <path
         d="m 157.037,410.788 1.45313,0 0,20.2684 -1.45313,0 0,-20.2684 z"
         style="fill:#000000;fill-opacity:1;fill-rule:nonzero;stroke:none"
         id="path11226"
         inkscape:connector-curvature="0" />
      <g
         id="g11228"
         transform="matrix(0,0.100072,0.0999282,0,0,0)">
        <path
           d="m 4104.94,1571.49 202.54,0 0,14.54 -202.54,0 0,-14.54 z"
           style="fill:none;stroke:#000000;stroke-width:0.48344401;stroke-linecap:round;stroke-linejoin:round;stroke-miterlimit:4;stroke-opacity:1;stroke-dasharray:none"
           id="path11230"
           inkscape:connector-curvature="0" />
      </g>
      <path
         d="m 260.332,410.788 1.45391,0 0,20.2684 -1.45391,0 0,-20.2684 z"
         style="fill:#000000;fill-opacity:1;fill-rule:nonzero;stroke:none"
         id="path11232"
         inkscape:connector-curvature="0" />
      <g
         id="g11234"
         transform="matrix(0,0.100072,0.0999282,0,0,0)">
        <path
           d="m 4104.94,2605.18 202.54,0 0,14.56 -202.54,0 0,-14.56 z"
           style="fill:none;stroke:#000000;stroke-width:0.48344401;stroke-linecap:round;stroke-linejoin:round;stroke-miterlimit:4;stroke-opacity:1;stroke-dasharray:none"
           id="path11236"
           inkscape:connector-curvature="0" />
      </g>
      <path
         d="m 251.788,409.05 0,0.595 -0.916,0 0,7.001 -1.765,-0.883 0.118,-0.658 0.944,0.521 0,-5.99 -0.985,0 0,-0.586"
         style="fill:#ffffff;fill-opacity:1;fill-rule:nonzero;stroke:none"
         id="path11238"
         inkscape:connector-curvature="0" />
      <path
         d="m 165.179,409.224 0,0.595 -0.916,0 0,7.002 -1.763,-0.883 0.117,-0.656 0.943,0.519 0,-5.991 -0.985,0 0,-0.586 2.604,0 z m 3.415,-0.256 c 0.373,0.293 0.748,0.62 1.119,0.993 0.363,0.373 0.689,0.775 0.982,1.209 0.282,0.425 0.512,0.88 0.693,1.361 0.174,0.473 0.265,0.964 0.269,1.469 -0.004,0.36 -0.051,0.704 -0.147,1.04 -0.098,0.326 -0.24,0.619 -0.428,0.874 -0.189,0.251 -0.435,0.449 -0.728,0.6 -0.297,0.143 -0.636,0.217 -1.023,0.222 -0.495,-0.005 -0.905,-0.123 -1.227,-0.349 -0.33,-0.237 -0.57,-0.524 -0.731,-0.875 -0.165,-0.349 -0.249,-0.732 -0.254,-1.138 -0.011,-0.416 0.065,-0.794 0.226,-1.14 0.16,-0.349 0.401,-0.641 0.721,-0.873 0.322,-0.236 0.722,-0.349 1.208,-0.349 0.256,0 0.506,0.047 0.75,0.146 0.242,0.099 0.458,0.237 0.657,0.407 -0.124,-0.312 -0.275,-0.615 -0.459,-0.898 -0.188,-0.294 -0.391,-0.567 -0.613,-0.831 -0.225,-0.266 -0.466,-0.521 -0.713,-0.756 -0.254,-0.242 -0.505,-0.459 -0.758,-0.653 l 0.456,-0.459 z m 2.341,4.929 c -0.005,-0.246 -0.079,-0.462 -0.23,-0.642 -0.156,-0.19 -0.351,-0.332 -0.581,-0.43 -0.236,-0.104 -0.486,-0.162 -0.75,-0.166 -0.27,-0.01 -0.52,0.043 -0.746,0.157 -0.237,0.103 -0.43,0.277 -0.581,0.523 -0.155,0.236 -0.231,0.552 -0.226,0.95 -0.005,0.216 0.029,0.434 0.095,0.647 0.061,0.214 0.156,0.407 0.277,0.576 0.124,0.17 0.275,0.307 0.463,0.411 0.18,0.104 0.396,0.157 0.651,0.157 0.316,0 0.586,-0.067 0.798,-0.19 0.211,-0.127 0.377,-0.292 0.499,-0.494 0.119,-0.209 0.203,-0.442 0.254,-0.705 0.048,-0.265 0.072,-0.53 0.077,-0.794"
         style="fill:#ffffff;fill-opacity:1;fill-rule:nonzero;stroke:none"
         id="path11240"
         inkscape:connector-curvature="0" />
    </g>
  </g>
</svg>
