<?xml version="1.0" encoding="UTF-8" standalone="no"?>
<!-- Created with Inkscape (http://www.inkscape.org/) -->

<svg
   xmlns:dc="http://purl.org/dc/elements/1.1/"
   xmlns:cc="http://creativecommons.org/ns#"
   xmlns:rdf="http://www.w3.org/1999/02/22-rdf-syntax-ns#"
   xmlns:svg="http://www.w3.org/2000/svg"
   xmlns="http://www.w3.org/2000/svg"
   xmlns:sodipodi="http://sodipodi.sourceforge.net/DTD/sodipodi-0.dtd"
   xmlns:inkscape="http://www.inkscape.org/namespaces/inkscape"
   width="559.73566"
   height="322.83301"
   id="svg10735"
   version="1.1"
   inkscape:version="0.48.4 r9939"
   sodipodi:docname="New document 21">
  <defs
     id="defs10737" />
  <sodipodi:namedview
     id="base"
     pagecolor="#ffffff"
     bordercolor="#666666"
     borderopacity="1.0"
     inkscape:pageopacity="0.0"
     inkscape:pageshadow="2"
     inkscape:zoom="0.35"
     inkscape:cx="391.87853"
     inkscape:cy="227.26007"
     inkscape:document-units="px"
     inkscape:current-layer="layer1"
     showgrid="false"
     fit-margin-top="5"
     fit-margin-left="5"
     fit-margin-right="5"
     fit-margin-bottom="5"
     inkscape:window-width="467"
     inkscape:window-height="427"
     inkscape:window-x="808"
     inkscape:window-y="0"
     inkscape:window-maximized="0" />
  <metadata
     id="metadata10740">
    <rdf:RDF>
      <cc:Work
         rdf:about="">
        <dc:format>image/svg+xml</dc:format>
        <dc:type
           rdf:resource="http://purl.org/dc/dcmitype/StillImage" />
        <dc:title></dc:title>
      </cc:Work>
    </rdf:RDF>
  </metadata>
  <g
     inkscape:label="Layer 1"
     inkscape:groupmode="layer"
     id="layer1"
     transform="translate(16.878529,-436.78924)">
    <g
       transform="matrix(7.0089336,0,0,-7.0089336,-1206.34,3399.9051)"
       id="g10606">
      <path
         d="m 179.077,421.186 62.177,0 c 5.114,0.412 7.722,-4.307 7.595,-8.71 l 0,-19.106 c -0.29,-6.672 -11.4,-16.609 -19.889,-15.904 l -40.289,0 c -2.737,-0.875 -17.979,9.911 -17.401,16.409 l 0,19.099 c -0.335,5.592 4.993,8.334 7.807,8.212"
         style="fill:#4d4d4d;fill-opacity:1;fill-rule:nonzero;stroke:none"
         id="path9748"
         inkscape:connector-curvature="0" />
      <path
         d="m 178.255,422.013 62.176,0 c 5.114,0.414 7.723,-4.308 7.594,-8.709 l 0,-19.106 c -0.289,-6.673 -11.399,-16.61 -19.887,-15.905 l -40.289,0 c -2.738,-0.874 -17.981,9.912 -17.401,16.41 l 0,19.098 c -0.336,5.593 4.992,8.334 7.807,8.212"
         style="fill:#e6e6e6;fill-opacity:1;fill-rule:nonzero;stroke:none"
         id="path9750"
         inkscape:connector-curvature="0" />
      <g
         id="g9752"
         transform="scale(0.0996919,-0.100308)">
        <path
           d="m 1788.06,-4207.15 623.68,0 c 51.31,-4.13 77.48,42.94 76.18,86.82 l 0,190.48 c -2.9,66.51 -114.35,165.58 -199.49,158.56 l -404.13,0 c -27.47,8.69 -180.36,-98.81 -174.55,-163.6 l 0,-190.39 c -3.38,-55.77 50.07,-83.09 78.31,-81.87 z"
           style="fill:none;stroke:#000000;stroke-width:0.26401299;stroke-linecap:butt;stroke-linejoin:miter;stroke-miterlimit:4;stroke-opacity:1;stroke-dasharray:none"
           id="path9754"
           inkscape:connector-curvature="0" />
      </g>
      <path
         d="m 180.581,419.089 57.17,0 c 6.085,0.363 6.844,-4.124 6.733,-7.984 l 0,-17.372 c -0.256,-4.358 -9.56,-13.088 -17.002,-12.468 l -37.751,0 c -2.404,-0.768 -15.371,8.839 -15.679,12.906 l 0,17.373 c -0.289,4.901 4.062,7.654 6.529,7.545"
         style="fill:#1d1d1d;fill-opacity:1;fill-rule:nonzero;stroke:none"
         id="path9756"
         inkscape:connector-curvature="0" />
      <g
         id="g9758"
         transform="scale(0.0996919,-0.100308)">
        <path
           d="m 1811.39,-4178.01 573.48,0 c 61.03,-3.61 68.63,41.12 67.53,79.61 l 0,173.18 c -2.58,43.45 -95.9,130.46 -170.55,124.27 l -378.69,0 c -24.09,7.68 -154.17,-88.11 -157.26,-128.66 l 0,-173.19 c -2.9,-48.86 40.74,-76.32 65.49,-75.21 z"
           style="fill:none;stroke:#000000;stroke-width:0.26401299;stroke-linecap:butt;stroke-linejoin:miter;stroke-miterlimit:4;stroke-opacity:1;stroke-dasharray:none"
           id="path9760"
           inkscape:connector-curvature="0" />
      </g>
      <path
         d="m 192.127,408.357 34.276,0 c 3.74,0.201 3.817,-1.797 3.746,-3.957 l 0,-9.375 c -0.153,-2.438 -6.136,-6.932 -10.705,-6.582 l -21.695,0 c -1.47,-0.432 -9.175,4.558 -9.367,6.827 l 0,9.375 c -0.175,2.743 2.236,3.77 3.745,3.712"
         style="fill:#404040;fill-opacity:1;fill-rule:nonzero;stroke:none"
         id="path9762"
         inkscape:connector-curvature="0" />
      <g
         id="g9764"
         transform="scale(0.0996919,-0.100308)">
        <path
           d="m 1927.21,-4071.02 343.81,0 c 37.53,-1.99 38.31,17.92 37.58,39.46 l 0,93.45 c -1.54,24.29 -61.56,69.1 -107.38,65.62 l -217.61,0 c -14.75,4.32 -92.04,-45.45 -93.97,-68.06 l 0,-93.47 c -1.75,-27.33 22.43,-37.58 37.57,-37 z"
           style="fill:none;stroke:#000000;stroke-width:0.26401299;stroke-linecap:butt;stroke-linejoin:miter;stroke-miterlimit:4;stroke-opacity:1;stroke-dasharray:none"
           id="path9766"
           inkscape:connector-curvature="0" />
      </g>
      <path
         d="m 191.904,408.345 34.273,0 c -21.173,-3.493 -28.331,-5.722 -28.651,-19.663 -1.472,-0.433 -9.183,4.559 -9.37,6.829 l 0,9.123 c -0.179,2.741 2.231,3.775 3.748,3.711"
         style="fill:#474747;fill-opacity:1;fill-rule:nonzero;stroke:none"
         id="path9768"
         inkscape:connector-curvature="0" />
      <path
         d="m 192.7,396.3 3.08438,0 0,6.82109 -3.08438,0 0,-6.82109 z"
         style="fill:#070707;fill-opacity:1;fill-rule:nonzero;stroke:none"
         id="path9770"
         inkscape:connector-curvature="0" />
      <g
         id="g9772"
         transform="scale(0.0996919,-0.100308)">
        <path
           d="m 1932.96,-4018.81 30.93,0 0,68.01 -30.93,0 0,-68.01 z"
           style="fill:none;stroke:#000000;stroke-width:0.26401299;stroke-linecap:round;stroke-linejoin:round;stroke-miterlimit:4;stroke-opacity:1;stroke-dasharray:none"
           id="path9774"
           inkscape:connector-curvature="0" />
      </g>
      <path
         d="m 200.018,396.3 3.08438,0 0,6.82109 -3.08438,0 0,-6.82109 z"
         style="fill:#070707;fill-opacity:1;fill-rule:nonzero;stroke:none"
         id="path9776"
         inkscape:connector-curvature="0" />
      <g
         id="g9778"
         transform="scale(0.0996919,-0.100308)">
        <path
           d="m 2006.36,-4018.81 30.95,0 0,68.01 -30.95,0 0,-68.01 z"
           style="fill:none;stroke:#000000;stroke-width:0.26401299;stroke-linecap:round;stroke-linejoin:round;stroke-miterlimit:4;stroke-opacity:1;stroke-dasharray:none"
           id="path9780"
           inkscape:connector-curvature="0" />
      </g>
      <path
         d="m 207.8,396.3 3.07773,0 0,6.82109 -3.07773,0 0,-6.82109 z"
         style="fill:#070707;fill-opacity:1;fill-rule:nonzero;stroke:none"
         id="path9782"
         inkscape:connector-curvature="0" />
      <g
         id="g9784"
         transform="scale(0.0996919,-0.100308)">
        <path
           d="m 2084.43,-4018.81 30.87,0 0,68.01 -30.87,0 0,-68.01 z"
           style="fill:none;stroke:#000000;stroke-width:0.26401299;stroke-linecap:round;stroke-linejoin:round;stroke-miterlimit:4;stroke-opacity:1;stroke-dasharray:none"
           id="path9786"
           inkscape:connector-curvature="0" />
      </g>
      <path
         d="m 215.581,396.3 3.07773,0 0,6.82109 -3.07773,0 0,-6.82109 z"
         style="fill:#070707;fill-opacity:1;fill-rule:nonzero;stroke:none"
         id="path9788"
         inkscape:connector-curvature="0" />
      <g
         id="g9790"
         transform="scale(0.0996919,-0.100308)">
        <path
           d="m 2162.48,-4018.81 30.87,0 0,68.01 -30.87,0 0,-68.01 z"
           style="fill:none;stroke:#000000;stroke-width:0.26401299;stroke-linecap:round;stroke-linejoin:round;stroke-miterlimit:4;stroke-opacity:1;stroke-dasharray:none"
           id="path9792"
           inkscape:connector-curvature="0" />
      </g>
      <path
         d="m 223.126,396.3 3.08398,0 0,6.82109 -3.08398,0 0,-6.82109 z"
         style="fill:#070707;fill-opacity:1;fill-rule:nonzero;stroke:none"
         id="path9794"
         inkscape:connector-curvature="0" />
      <g
         id="g9796"
         transform="scale(0.0996919,-0.100308)">
        <path
           d="m 2238.15,-4018.81 30.94,0 0,68.01 -30.94,0 0,-68.01 z"
           style="fill:none;stroke:#000000;stroke-width:0.26401299;stroke-linecap:round;stroke-linejoin:round;stroke-miterlimit:4;stroke-opacity:1;stroke-dasharray:none"
           id="path9798"
           inkscape:connector-curvature="0" />
      </g>
      <path
         d="m 193.239,408.253 1.46602,0 0,2.23125 -1.46602,0 0,-2.23125 z"
         style="fill:#ffac00;fill-opacity:1;fill-rule:nonzero;stroke:none"
         id="path9800"
         inkscape:connector-curvature="0" />
      <g
         id="g9802"
         transform="scale(0.0996919,-0.100308)">
        <path
           d="m 1938.37,-4092.22 14.7,0 0,22.24 -14.7,0 0,-22.24 z"
           style="fill:none;stroke:#000000;stroke-width:0.221201;stroke-linecap:round;stroke-linejoin:round;stroke-miterlimit:4;stroke-opacity:1;stroke-dasharray:none"
           id="path9804"
           inkscape:connector-curvature="0" />
      </g>
      <path
         d="m 200.827,408.253 1.46563,0 0,2.23125 -1.46563,0 0,-2.23125 z"
         style="fill:#ffac00;fill-opacity:1;fill-rule:nonzero;stroke:none"
         id="path9806"
         inkscape:connector-curvature="0" />
      <g
         id="g9808"
         transform="scale(0.0996919,-0.100308)">
        <path
           d="m 2014.49,-4092.22 14.7,0 0,22.24 -14.7,0 0,-22.24 z"
           style="fill:none;stroke:#000000;stroke-width:0.221201;stroke-linecap:round;stroke-linejoin:round;stroke-miterlimit:4;stroke-opacity:1;stroke-dasharray:none"
           id="path9810"
           inkscape:connector-curvature="0" />
      </g>
      <path
         d="m 208.378,408.253 1.46563,0 0,2.23125 -1.46563,0 0,-2.23125 z"
         style="fill:#ffac00;fill-opacity:1;fill-rule:nonzero;stroke:none"
         id="path9812"
         inkscape:connector-curvature="0" />
      <g
         id="g9814"
         transform="scale(0.0996919,-0.100308)">
        <path
           d="m 2090.22,-4092.22 14.71,0 0,22.24 -14.71,0 0,-22.24 z"
           style="fill:none;stroke:#000000;stroke-width:0.221201;stroke-linecap:round;stroke-linejoin:round;stroke-miterlimit:4;stroke-opacity:1;stroke-dasharray:none"
           id="path9816"
           inkscape:connector-curvature="0" />
      </g>
      <path
         d="m 216.238,408.253 1.45898,0 0,2.23125 -1.45898,0 0,-2.23125 z"
         style="fill:#ffac00;fill-opacity:1;fill-rule:nonzero;stroke:none"
         id="path9818"
         inkscape:connector-curvature="0" />
      <g
         id="g9820"
         transform="scale(0.0996919,-0.100308)">
        <path
           d="m 2169.07,-4092.22 14.63,0 0,22.24 -14.63,0 0,-22.24 z"
           style="fill:none;stroke:#000000;stroke-width:0.221201;stroke-linecap:round;stroke-linejoin:round;stroke-miterlimit:4;stroke-opacity:1;stroke-dasharray:none"
           id="path9822"
           inkscape:connector-curvature="0" />
      </g>
      <path
         d="m 223.865,408.253 1.45898,0 0,2.23125 -1.45898,0 0,-2.23125 z"
         style="fill:#ffac00;fill-opacity:1;fill-rule:nonzero;stroke:none"
         id="path9824"
         inkscape:connector-curvature="0" />
      <g
         id="g9826"
         transform="scale(0.0996919,-0.100308)">
        <path
           d="m 2245.56,-4092.22 14.64,0 0,22.24 -14.64,0 0,-22.24 z"
           style="fill:none;stroke:#000000;stroke-width:0.221201;stroke-linecap:round;stroke-linejoin:round;stroke-miterlimit:4;stroke-opacity:1;stroke-dasharray:none"
           id="path9828"
           inkscape:connector-curvature="0" />
      </g>
      <path
         d="m 226.897,411.705 c 0.207,-0.257 0.469,-0.44 0.785,-0.555 0.314,-0.109 0.629,-0.161 0.937,-0.167 0.45,0.006 0.824,0.102 1.125,0.308 0.302,0.202 0.527,0.459 0.683,0.777 0.146,0.31 0.223,0.647 0.23,1.015 0,0.355 -0.071,0.692 -0.212,1.01 -0.156,0.309 -0.38,0.574 -0.675,0.782 -0.308,0.206 -0.688,0.311 -1.143,0.311 -0.226,0 -0.425,-0.034 -0.604,-0.099 l 0,1.876 2.165,0 0.083,0.562 -2.834,0 0,-3.225 c 0.155,0.096 0.328,0.174 0.515,0.238 0.179,0.051 0.365,0.085 0.558,0.091 0.354,-0.006 0.643,-0.084 0.875,-0.233 0.224,-0.156 0.398,-0.343 0.513,-0.57 0.109,-0.231 0.161,-0.478 0.161,-0.737 -0.013,-0.264 -0.071,-0.511 -0.174,-0.735 -0.115,-0.234 -0.276,-0.427 -0.487,-0.57 -0.218,-0.156 -0.482,-0.227 -0.798,-0.227 -0.276,0 -0.546,0.064 -0.796,0.193 -0.264,0.131 -0.482,0.299 -0.663,0.505"
         style="fill:#ffffff;fill-opacity:1;fill-rule:nonzero;stroke:none"
         id="path9830"
         inkscape:connector-curvature="0" />
      <path
         d="m 191.389,411.125 0,0.516 -0.771,0 0,6.098 -1.492,-0.769 0.104,-0.57 0.796,0.452 0,-5.217 -0.835,0 0,-0.51"
         style="fill:#ffffff;fill-opacity:1;fill-rule:nonzero;stroke:none"
         id="path9832"
         inkscape:connector-curvature="0" />
      <path
         d="m 193.348,397.766 1.78633,0 0,3.88633 -1.78633,0 0,-3.88633 z"
         style="fill:#ffac00;fill-opacity:1;fill-rule:nonzero;stroke:none"
         id="path9834"
         inkscape:connector-curvature="0" />
      <g
         id="g9836"
         transform="scale(0.0996919,-0.100308)">
        <path
           d="m 1939.45,-4004.18 17.93,0 0,38.75 -17.93,0 0,-38.75 z"
           style="fill:none;stroke:#000000;stroke-width:0.32283199;stroke-linecap:round;stroke-linejoin:round;stroke-miterlimit:4;stroke-opacity:1;stroke-dasharray:none"
           id="path9838"
           inkscape:connector-curvature="0" />
      </g>
      <path
         d="m 200.827,398.121 1.46563,0 0,3.17461 -1.46563,0 0,-3.17461 z"
         style="fill:#ffac00;fill-opacity:1;fill-rule:nonzero;stroke:none"
         id="path9840"
         inkscape:connector-curvature="0" />
      <g
         id="g9842"
         transform="scale(0.0996919,-0.100308)">
        <path
           d="m 2014.49,-4000.63 14.7,0 0,31.66 -14.7,0 0,-31.66 z"
           style="fill:none;stroke:#000000;stroke-width:0.26401299;stroke-linecap:round;stroke-linejoin:round;stroke-miterlimit:4;stroke-opacity:1;stroke-dasharray:none"
           id="path9844"
           inkscape:connector-curvature="0" />
      </g>
      <path
         d="m 208.611,398.121 1.46563,0 0,3.17461 -1.46563,0 0,-3.17461 z"
         style="fill:#ffac00;fill-opacity:1;fill-rule:nonzero;stroke:none"
         id="path9846"
         inkscape:connector-curvature="0" />
      <g
         id="g9848"
         transform="scale(0.0996919,-0.100308)">
        <path
           d="m 2092.54,-4000.63 14.72,0 0,31.66 -14.72,0 0,-31.66 z"
           style="fill:none;stroke:#000000;stroke-width:0.26401299;stroke-linecap:round;stroke-linejoin:round;stroke-miterlimit:4;stroke-opacity:1;stroke-dasharray:none"
           id="path9850"
           inkscape:connector-curvature="0" />
      </g>
      <path
         d="m 216.391,398.121 1.45938,0 0,3.17461 -1.45938,0 0,-3.17461 z"
         style="fill:#ffac00;fill-opacity:1;fill-rule:nonzero;stroke:none"
         id="path9852"
         inkscape:connector-curvature="0" />
      <g
         id="g9854"
         transform="scale(0.0996919,-0.100308)">
        <path
           d="m 2170.59,-4000.63 14.64,0 0,31.66 -14.64,0 0,-31.66 z"
           style="fill:none;stroke:#000000;stroke-width:0.26401299;stroke-linecap:round;stroke-linejoin:round;stroke-miterlimit:4;stroke-opacity:1;stroke-dasharray:none"
           id="path9856"
           inkscape:connector-curvature="0" />
      </g>
      <path
         d="m 223.936,398.121 1.46602,0 0,3.17461 -1.46602,0 0,-3.17461 z"
         style="fill:#ffac00;fill-opacity:1;fill-rule:nonzero;stroke:none"
         id="path9858"
         inkscape:connector-curvature="0" />
      <g
         id="g9860"
         transform="scale(0.0996919,-0.100308)">
        <path
           d="m 2246.26,-4000.63 14.72,0 0,31.66 -14.72,0 0,-31.66 z"
           style="fill:none;stroke:#000000;stroke-width:0.26401299;stroke-linecap:round;stroke-linejoin:round;stroke-miterlimit:4;stroke-opacity:1;stroke-dasharray:none"
           id="path9862"
           inkscape:connector-curvature="0" />
      </g>
    </g>
  </g>
</svg>
