<?xml version="1.0" encoding="UTF-8" standalone="no"?>
<!-- Created with Inkscape (http://www.inkscape.org/) -->

<svg
   xmlns:dc="http://purl.org/dc/elements/1.1/"
   xmlns:cc="http://creativecommons.org/ns#"
   xmlns:rdf="http://www.w3.org/1999/02/22-rdf-syntax-ns#"
   xmlns:svg="http://www.w3.org/2000/svg"
   xmlns="http://www.w3.org/2000/svg"
   xmlns:sodipodi="http://sodipodi.sourceforge.net/DTD/sodipodi-0.dtd"
   xmlns:inkscape="http://www.inkscape.org/namespaces/inkscape"
   width="559.84644"
   height="92.702477"
   id="svg9429"
   version="1.1"
   inkscape:version="0.48.4 r9939"
   sodipodi:docname="New document 14">
  <defs
     id="defs9431" />
  <sodipodi:namedview
     id="base"
     pagecolor="#ffffff"
     bordercolor="#666666"
     borderopacity="1.0"
     inkscape:pageopacity="0.0"
     inkscape:pageshadow="2"
     inkscape:zoom="0.35"
     inkscape:cx="597.77509"
     inkscape:cy="300.63878"
     inkscape:document-units="px"
     inkscape:current-layer="layer1"
     showgrid="false"
     inkscape:window-width="467"
     inkscape:window-height="427"
     inkscape:window-x="808"
     inkscape:window-y="0"
     inkscape:window-maximized="0"
     fit-margin-top="5"
     fit-margin-left="5"
     fit-margin-right="5"
     fit-margin-bottom="5" />
  <metadata
     id="metadata9434">
    <rdf:RDF>
      <cc:Work
         rdf:about="">
        <dc:format>image/svg+xml</dc:format>
        <dc:type
           rdf:resource="http://purl.org/dc/dcmitype/StillImage" />
        <dc:title></dc:title>
      </cc:Work>
    </rdf:RDF>
  </metadata>
  <g
     inkscape:label="Layer 1"
     inkscape:groupmode="layer"
     id="layer1"
     transform="translate(222.77509,-740.29848)">
    <g
       id="g9316"
       transform="matrix(4.2233138,0,0,-4.2233138,-825.97429,2705.6474)">
      <path
         d="m 144.041,462.655 4.604,0.006 0.006,1.48 121.128,0 0,-1.48 4.389,-0.033 0,-18.005 -130.127,0"
         style="fill:#e6e6e6;fill-opacity:1;fill-rule:nonzero;stroke:none"
         id="path8574"
         inkscape:connector-curvature="0" />
      <g
         id="g8576"
         transform="scale(0.100535,-0.0994652)">
        <path
           d="m 1432.74,-4651.43 45.81,-0.06 0.06,-14.88 1204.85,0 0,14.88 43.65,0.35 0,181 -1294.37,0 0,-181.29 z"
           style="fill:none;stroke:#000000;stroke-width:0.62734801;stroke-linecap:round;stroke-linejoin:round;stroke-miterlimit:4;stroke-opacity:1;stroke-dasharray:none"
           id="path8578"
           inkscape:connector-curvature="0" />
      </g>
      <path
         d="m 146.875,461.869 2.483,-0.012 0,1.238 117.803,-0.058 0.03,-2.562 4.166,0 0,-13.69 -124.488,0"
         style="fill:#0b0b0b;fill-opacity:1;fill-rule:nonzero;stroke:none"
         id="path8580"
         inkscape:connector-curvature="0" />
      <g
         id="g8582"
         transform="scale(0.100535,-0.0994652)">
        <path
           d="m 1460.94,-4643.53 24.7,0.13 0,-12.44 1171.78,0.58 0.28,25.74 41.44,0 0,137.63 -1238.26,0 0.06,-151.64 z"
           style="fill:none;stroke:#000000;stroke-width:0.62734801;stroke-linecap:round;stroke-linejoin:round;stroke-miterlimit:4;stroke-opacity:1;stroke-dasharray:none"
           id="path8584"
           inkscape:connector-curvature="0" />
      </g>
      <path
         d="m 144.905,462.239 3.864,0 0,-14.857 7.719,0 0,-2.32 -11.583,0"
         style="fill:#343434;fill-opacity:1;fill-rule:nonzero;stroke:none"
         id="path8586"
         inkscape:connector-curvature="0" />
      <g
         id="g8588"
         transform="scale(0.100535,-0.0994652)">
        <path
           d="m 1441.35,-4647.25 38.43,0 0,149.39 76.78,0 0,23.3 -115.21,0 0,-172.69 z"
           style="fill:none;stroke:#000000;stroke-width:0.62734801;stroke-linecap:round;stroke-linejoin:round;stroke-miterlimit:4;stroke-opacity:1;stroke-dasharray:none"
           id="path8590"
           inkscape:connector-curvature="0" />
      </g>
      <path
         d="m 272.661,462.105 -3.507,0.058 0,1.469 -12.137,0.03 -0.018,-16.35 -6.819,0.012 0,-2.141 22.481,-0.004"
         style="fill:#343434;fill-opacity:1;fill-rule:nonzero;stroke:none"
         id="path8592"
         inkscape:connector-curvature="0" />
      <g
         id="g8594"
         transform="scale(0.100535,-0.0994652)">
        <path
           d="m 2712.11,-4645.91 -34.88,-0.57 0,-14.76 -120.72,-0.3 -0.17,164.38 -67.84,-0.13 0,21.51 223.61,0.06 0,-170.19 z"
           style="fill:none;stroke:#000000;stroke-width:0.62734801;stroke-linecap:round;stroke-linejoin:round;stroke-miterlimit:4;stroke-opacity:1;stroke-dasharray:none"
           id="path8596"
           inkscape:connector-curvature="0" />
      </g>
      <path
         d="m 165.376,444.68 18.9902,0 0,2.04102 -18.9902,0 0,-2.04102 z"
         style="fill:#c3c3c3;fill-opacity:1;fill-rule:nonzero;stroke:none"
         id="path8598"
         inkscape:connector-curvature="0" />
      <g
         id="g8600"
         transform="scale(0.103883,-0.0961172)">
        <path
           d="m 1591.94,-4647.69 182.81,0 0,21.23 -182.81,0 0,-21.23 z"
           style="fill:none;stroke:#000000;stroke-width:0.37312999;stroke-linecap:butt;stroke-linejoin:miter;stroke-miterlimit:4;stroke-opacity:1;stroke-dasharray:none"
           id="path8602"
           inkscape:connector-curvature="0" />
      </g>
      <path
         d="m 224.3,444.68 19.0148,0 0,2.05859 -19.0148,0 0,-2.05859 z"
         style="fill:#c3c3c3;fill-opacity:1;fill-rule:nonzero;stroke:none"
         id="path8604"
         inkscape:connector-curvature="0" />
      <g
         id="g8606"
         transform="scale(0.103883,-0.0961172)">
        <path
           d="m 2159.17,-4647.86 183.04,0 0,21.41 -183.04,0 0,-21.41 z"
           style="fill:none;stroke:#000000;stroke-width:0.37312999;stroke-linecap:butt;stroke-linejoin:miter;stroke-miterlimit:4;stroke-opacity:1;stroke-dasharray:none"
           id="path8608"
           inkscape:connector-curvature="0" />
      </g>
      <path
         d="m 153.325,463.175 103.715,0 0,0.94297 -103.715,0 0,-0.94297 z"
         style="fill:#c3c3c3;fill-opacity:1;fill-rule:nonzero;stroke:none"
         id="path8610"
         inkscape:connector-curvature="0" />
      <g
         id="g8612"
         transform="scale(0.100535,-0.0994652)">
        <path
           d="m 1525.11,-4666.13 1031.63,0 0,9.48 -1031.63,0 0,-9.48 z"
           style="fill:none;stroke:#000000;stroke-width:0.37285399;stroke-linecap:butt;stroke-linejoin:miter;stroke-miterlimit:4;stroke-opacity:1;stroke-dasharray:none"
           id="path8614"
           inkscape:connector-curvature="0" />
      </g>
      <path
         d="m 161.314,446.862 4.00313,0 0,0.65234 -4.00313,0 0,-0.65234 z"
         style="fill:#ffcc00;fill-opacity:1;fill-rule:nonzero;stroke:none"
         id="path8616"
         inkscape:connector-curvature="0" />
      <g
         id="g8618"
         transform="scale(0.100535,-0.0994652)">
        <path
           d="m 1604.56,-4499.21 39.83,0 0,6.57 -39.83,0 0,-6.57 z"
           style="fill:none;stroke:#000000;stroke-width:0.39071801;stroke-linecap:butt;stroke-linejoin:miter;stroke-miterlimit:4;stroke-opacity:1;stroke-dasharray:none"
           id="path8620"
           inkscape:connector-curvature="0" />
      </g>
      <path
         d="m 168.437,446.862 4.00273,0 0,0.65234 -4.00273,0 0,-0.65234 z"
         style="fill:#ffcc00;fill-opacity:1;fill-rule:nonzero;stroke:none"
         id="path8622"
         inkscape:connector-curvature="0" />
      <g
         id="g8624"
         transform="scale(0.100535,-0.0994652)">
        <path
           d="m 1675.42,-4499.21 39.82,0 0,6.57 -39.82,0 0,-6.57 z"
           style="fill:none;stroke:#000000;stroke-width:0.39071801;stroke-linecap:butt;stroke-linejoin:miter;stroke-miterlimit:4;stroke-opacity:1;stroke-dasharray:none"
           id="path8626"
           inkscape:connector-curvature="0" />
      </g>
      <path
         d="m 175.631,446.862 4.00313,0 0,0.65234 -4.00313,0 0,-0.65234 z"
         style="fill:#ffcc00;fill-opacity:1;fill-rule:nonzero;stroke:none"
         id="path8628"
         inkscape:connector-curvature="0" />
      <g
         id="g8630"
         transform="scale(0.100535,-0.0994652)">
        <path
           d="m 1746.97,-4499.21 39.82,0 0,6.57 -39.82,0 0,-6.57 z"
           style="fill:none;stroke:#000000;stroke-width:0.39071801;stroke-linecap:butt;stroke-linejoin:miter;stroke-miterlimit:4;stroke-opacity:1;stroke-dasharray:none"
           id="path8632"
           inkscape:connector-curvature="0" />
      </g>
      <path
         d="m 182.842,446.862 4.00313,0 0,0.65234 -4.00313,0 0,-0.65234 z"
         style="fill:#ffcc00;fill-opacity:1;fill-rule:nonzero;stroke:none"
         id="path8634"
         inkscape:connector-curvature="0" />
      <g
         id="g8636"
         transform="scale(0.100535,-0.0994652)">
        <path
           d="m 1818.69,-4499.21 39.82,0 0,6.57 -39.82,0 0,-6.57 z"
           style="fill:none;stroke:#000000;stroke-width:0.39071801;stroke-linecap:butt;stroke-linejoin:miter;stroke-miterlimit:4;stroke-opacity:1;stroke-dasharray:none"
           id="path8638"
           inkscape:connector-curvature="0" />
      </g>
      <path
         d="m 190.134,446.862 4.00859,0 0,0.65234 -4.00859,0 0,-0.65234 z"
         style="fill:#ffcc00;fill-opacity:1;fill-rule:nonzero;stroke:none"
         id="path8640"
         inkscape:connector-curvature="0" />
      <g
         id="g8642"
         transform="scale(0.100535,-0.0994652)">
        <path
           d="m 1891.23,-4499.21 39.87,0 0,6.57 -39.87,0 0,-6.57 z"
           style="fill:none;stroke:#000000;stroke-width:0.39071801;stroke-linecap:butt;stroke-linejoin:miter;stroke-miterlimit:4;stroke-opacity:1;stroke-dasharray:none"
           id="path8644"
           inkscape:connector-curvature="0" />
      </g>
      <path
         d="m 197.257,446.862 4.00898,0 0,0.65234 -4.00898,0 0,-0.65234 z"
         style="fill:#ffcc00;fill-opacity:1;fill-rule:nonzero;stroke:none"
         id="path8646"
         inkscape:connector-curvature="0" />
      <g
         id="g8648"
         transform="scale(0.100535,-0.0994652)">
        <path
           d="m 1962.09,-4499.21 39.88,0 0,6.57 -39.88,0 0,-6.57 z"
           style="fill:none;stroke:#000000;stroke-width:0.39071801;stroke-linecap:butt;stroke-linejoin:miter;stroke-miterlimit:4;stroke-opacity:1;stroke-dasharray:none"
           id="path8650"
           inkscape:connector-curvature="0" />
      </g>
      <path
         d="m 204.456,446.862 4.00313,0 0,0.65234 -4.00313,0 0,-0.65234 z"
         style="fill:#ffcc00;fill-opacity:1;fill-rule:nonzero;stroke:none"
         id="path8652"
         inkscape:connector-curvature="0" />
      <g
         id="g8654"
         transform="scale(0.100535,-0.0994652)">
        <path
           d="m 2033.69,-4499.21 39.82,0 0,6.57 -39.82,0 0,-6.57 z"
           style="fill:none;stroke:#000000;stroke-width:0.39071801;stroke-linecap:butt;stroke-linejoin:miter;stroke-miterlimit:4;stroke-opacity:1;stroke-dasharray:none"
           id="path8656"
           inkscape:connector-curvature="0" />
      </g>
      <path
         d="m 211.766,446.862 4.00859,0 0,0.65234 -4.00859,0 0,-0.65234 z"
         style="fill:#ffcc00;fill-opacity:1;fill-rule:nonzero;stroke:none"
         id="path8658"
         inkscape:connector-curvature="0" />
      <g
         id="g8660"
         transform="scale(0.100535,-0.0994652)">
        <path
           d="m 2106.4,-4499.21 39.88,0 0,6.57 -39.88,0 0,-6.57 z"
           style="fill:none;stroke:#000000;stroke-width:0.39071801;stroke-linecap:butt;stroke-linejoin:miter;stroke-miterlimit:4;stroke-opacity:1;stroke-dasharray:none"
           id="path8662"
           inkscape:connector-curvature="0" />
      </g>
      <path
         d="m 219.035,446.862 4.00938,0 0,0.65234 -4.00938,0 0,-0.65234 z"
         style="fill:#ffcc00;fill-opacity:1;fill-rule:nonzero;stroke:none"
         id="path8664"
         inkscape:connector-curvature="0" />
      <g
         id="g8666"
         transform="scale(0.100535,-0.0994652)">
        <path
           d="m 2178.7,-4499.21 39.89,0 0,6.57 -39.89,0 0,-6.57 z"
           style="fill:none;stroke:#000000;stroke-width:0.39071801;stroke-linecap:butt;stroke-linejoin:miter;stroke-miterlimit:4;stroke-opacity:1;stroke-dasharray:none"
           id="path8668"
           inkscape:connector-curvature="0" />
      </g>
      <path
         d="m 222.121,450.566 0,0.464 -0.702,0 0,5.45 -1.355,-0.687 0.093,-0.508 0.725,0.404 0,-4.666 -0.76,0 0,-0.457"
         style="fill:#f9f9f9;fill-opacity:1;fill-rule:nonzero;stroke:none"
         id="path8670"
         inkscape:connector-curvature="0" />
      <path
         d="m 162.407,450.497 c 0.286,0.226 0.567,0.48 0.853,0.776 0.281,0.288 0.532,0.606 0.754,0.941 0.216,0.336 0.398,0.688 0.537,1.065 0.135,0.363 0.204,0.744 0.204,1.144 0,0.277 -0.039,0.544 -0.11,0.804 -0.082,0.253 -0.193,0.486 -0.334,0.68 -0.151,0.197 -0.333,0.355 -0.554,0.47 -0.228,0.115 -0.491,0.174 -0.789,0.174 -0.374,0 -0.689,-0.092 -0.934,-0.278 -0.258,-0.185 -0.446,-0.411 -0.568,-0.676 -0.128,-0.273 -0.192,-0.567 -0.192,-0.884 -0.007,-0.325 0.052,-0.626 0.174,-0.892 0.118,-0.276 0.298,-0.503 0.55,-0.682 0.245,-0.186 0.554,-0.277 0.929,-0.271 0.187,-0.006 0.38,0.034 0.572,0.115 0.187,0.076 0.356,0.179 0.503,0.318 -0.093,-0.248 -0.21,-0.479 -0.35,-0.699 -0.141,-0.226 -0.297,-0.439 -0.469,-0.647 -0.175,-0.209 -0.356,-0.406 -0.548,-0.591 -0.193,-0.184 -0.387,-0.359 -0.58,-0.509 l 0.352,-0.358 z m 1.794,3.839 c -0.006,-0.191 -0.065,-0.358 -0.175,-0.497 -0.123,-0.151 -0.269,-0.26 -0.444,-0.336 -0.182,-0.087 -0.375,-0.132 -0.579,-0.132 -0.205,-0.012 -0.397,0.029 -0.573,0.122 -0.182,0.079 -0.327,0.219 -0.444,0.409 -0.117,0.185 -0.175,0.434 -0.175,0.741 0,0.173 0.023,0.339 0.069,0.509 0.047,0.161 0.118,0.312 0.217,0.445 0.094,0.126 0.21,0.232 0.357,0.317 0.14,0.075 0.309,0.116 0.496,0.121 0.245,-0.005 0.45,-0.052 0.614,-0.143 0.164,-0.099 0.286,-0.231 0.38,-0.389 0.088,-0.16 0.158,-0.339 0.198,-0.542 0.035,-0.209 0.053,-0.416 0.059,-0.625"
         style="fill:#f9f9f9;fill-opacity:1;fill-rule:nonzero;stroke:none"
         id="path8672"
         inkscape:connector-curvature="0" />
    </g>
  </g>
</svg>
